<svg width="20" height="20" viewBox="0 0 20 20" fill="none" xmlns="http://www.w3.org/2000/svg">
<path d="M10 13.125C8.275 13.125 6.875 11.725 6.875 10C6.875 8.275 8.275 6.875 10 6.875C11.725 6.875 13.125 8.275 13.125 10C13.125 11.725 11.725 13.125 10 13.125ZM10 8.125C8.96667 8.125 8.125 8.96667 8.125 10C8.125 11.0333 8.96667 11.875 10 11.875C11.0333 11.875 11.875 11.0333 11.875 10C11.875 8.96667 11.0333 8.125 10 8.125Z" fill="#1E1E1E"/>
<path d="M12.675 18.4916C12.5 18.4916 12.325 18.4666 12.15 18.425C11.6334 18.2833 11.2 17.9583 10.925 17.5L10.825 17.3333C10.3334 16.4833 9.65835 16.4833 9.16669 17.3333L9.07502 17.4916C8.80002 17.9583 8.36669 18.2916 7.85002 18.425C7.32502 18.5666 6.78335 18.4916 6.32502 18.2166L4.89169 17.3916C4.38335 17.1 4.01669 16.625 3.85835 16.05C3.70835 15.475 3.78335 14.8833 4.07502 14.375C4.31669 13.95 4.38335 13.5666 4.24169 13.325C4.10002 13.0833 3.74169 12.9416 3.25002 12.9416C2.03335 12.9416 1.04169 11.95 1.04169 10.7333V9.26662C1.04169 8.04995 2.03335 7.05829 3.25002 7.05829C3.74169 7.05829 4.10002 6.91662 4.24169 6.67495C4.38335 6.43329 4.32502 6.04995 4.07502 5.62495C3.78335 5.11662 3.70835 4.51662 3.85835 3.94995C4.00835 3.37495 4.37502 2.89995 4.89169 2.60829L6.33335 1.78329C7.27502 1.22495 8.51669 1.54995 9.08335 2.50829L9.18335 2.67495C9.67502 3.52495 10.35 3.52495 10.8417 2.67495L10.9334 2.51662C11.5 1.54995 12.7417 1.22495 13.6917 1.79162L15.125 2.61662C15.6334 2.90829 16 3.38329 16.1584 3.95829C16.3084 4.53329 16.2334 5.12495 15.9417 5.63329C15.7 6.05829 15.6334 6.44162 15.775 6.68329C15.9167 6.92495 16.275 7.06662 16.7667 7.06662C17.9834 7.06662 18.975 8.05829 18.975 9.27495V10.7416C18.975 11.9583 17.9834 12.95 16.7667 12.95C16.275 12.95 15.9167 13.0916 15.775 13.3333C15.6334 13.575 15.6917 13.9583 15.9417 14.3833C16.2334 14.8916 16.3167 15.4916 16.1584 16.0583C16.0084 16.6333 15.6417 17.1083 15.125 17.4L13.6834 18.225C13.3667 18.4 13.025 18.4916 12.675 18.4916ZM10 15.4083C10.7417 15.4083 11.4334 15.875 11.9084 16.7L12 16.8583C12.1 17.0333 12.2667 17.1583 12.4667 17.2083C12.6667 17.2583 12.8667 17.2333 13.0334 17.1333L14.475 16.3C14.6917 16.175 14.8584 15.9666 14.925 15.7166C14.9917 15.4666 14.9584 15.2083 14.8334 14.9916C14.3584 14.175 14.3 13.3333 14.6667 12.6916C15.0334 12.05 15.7917 11.6833 16.7417 11.6833C17.275 11.6833 17.7 11.2583 17.7 10.725V9.25829C17.7 8.73329 17.275 8.29995 16.7417 8.29995C15.7917 8.29995 15.0334 7.93329 14.6667 7.29162C14.3 6.64995 14.3584 5.80829 14.8334 4.99162C14.9584 4.77495 14.9917 4.51662 14.925 4.26662C14.8584 4.01662 14.7 3.81662 14.4834 3.68329L13.0417 2.85829C12.6834 2.64162 12.2084 2.76662 11.9917 3.13329L11.9 3.29162C11.425 4.11662 10.7334 4.58329 9.99169 4.58329C9.25002 4.58329 8.55835 4.11662 8.08335 3.29162L7.99169 3.12495C7.78335 2.77495 7.31669 2.64995 6.95835 2.85829L5.51669 3.69162C5.30002 3.81662 5.13335 4.02495 5.06669 4.27495C5.00002 4.52495 5.03335 4.78329 5.15835 4.99995C5.63335 5.81662 5.69169 6.65829 5.32502 7.29995C4.95835 7.94162 4.20002 8.30829 3.25002 8.30829C2.71669 8.30829 2.29169 8.73329 2.29169 9.26662V10.7333C2.29169 11.2583 2.71669 11.6916 3.25002 11.6916C4.20002 11.6916 4.95835 12.0583 5.32502 12.7C5.69169 13.3416 5.63335 14.1833 5.15835 15C5.03335 15.2166 5.00002 15.475 5.06669 15.725C5.13335 15.975 5.29169 16.175 5.50835 16.3083L6.95002 17.1333C7.12502 17.2416 7.33335 17.2666 7.52502 17.2166C7.72502 17.1666 7.89169 17.0333 8.00002 16.8583L8.09169 16.7C8.56669 15.8833 9.25835 15.4083 10 15.4083Z" fill="#1E1E1E"/>
</svg>
