<svg width="48" height="48" viewBox="0 0 48 48" fill="none" xmlns="http://www.w3.org/2000/svg">
<rect x="0.5" y="0.5" width="47" height="47" rx="7.5" stroke="#F44336"/>
<path d="M33 18.73C32.98 18.73 32.95 18.73 32.92 18.73C27.63 18.2 22.35 18 17.12 18.53L15.08 18.73C14.66 18.77 14.29 18.47 14.25 18.05C14.21 17.63 14.51 17.27 14.92 17.23L16.96 17.03C22.28 16.49 27.67 16.7 33.07 17.23C33.48 17.27 33.78 17.64 33.74 18.05C33.71 18.44 33.38 18.73 33 18.73Z" fill="#F44336"/>
<path d="M20.5 17.72C20.46 17.72 20.42 17.72 20.37 17.71C19.97 17.64 19.69 17.25 19.76 16.85L19.98 15.54C20.14 14.58 20.36 13.25 22.69 13.25H25.31C27.65 13.25 27.87 14.63 28.02 15.55L28.24 16.85C28.31 17.26 28.03 17.65 27.63 17.71C27.22 17.78 26.83 17.5 26.77 17.1L26.55 15.8C26.41 14.93 26.38 14.76 25.32 14.76H22.7C21.64 14.76 21.62 14.9 21.47 15.79L21.24 17.09C21.18 17.46 20.86 17.72 20.5 17.72Z" fill="#F44336"/>
<path d="M27.21 34.75H20.79C17.3 34.75 17.16 32.82 17.05 31.26L16.4 21.19C16.37 20.78 16.69 20.42 17.1 20.39C17.52 20.37 17.87 20.68 17.9 21.09L18.55 31.16C18.66 32.68 18.7 33.25 20.79 33.25H27.21C29.31 33.25 29.35 32.68 29.45 31.16L30.1 21.09C30.13 20.68 30.49 20.37 30.9 20.39C31.31 20.42 31.63 20.77 31.6 21.19L30.95 31.26C30.84 32.82 30.7 34.75 27.21 34.75Z" fill="#F44336"/>
<path d="M25.66 29.25H22.33C21.92 29.25 21.58 28.91 21.58 28.5C21.58 28.09 21.92 27.75 22.33 27.75H25.66C26.07 27.75 26.41 28.09 26.41 28.5C26.41 28.91 26.07 29.25 25.66 29.25Z" fill="#F44336"/>
<path d="M26.5 25.25H21.5C21.09 25.25 20.75 24.91 20.75 24.5C20.75 24.09 21.09 23.75 21.5 23.75H26.5C26.91 23.75 27.25 24.09 27.25 24.5C27.25 24.91 26.91 25.25 26.5 25.25Z" fill="#F44336"/>
</svg>
