<svg width="8" height="16" viewBox="0 0 8 16" fill="none" xmlns="http://www.w3.org/2000/svg">
<path d="M6.64001 5.26661C6.57667 5.26661 6.51334 5.24328 6.46334 5.19328L4.29001 3.01994C4.13001 2.85994 3.87001 2.85994 3.71001 3.01994L1.53667 5.19328C1.44001 5.28994 1.28001 5.28994 1.18334 5.19328C1.08667 5.09661 1.08667 4.93661 1.18334 4.83994L3.35667 2.66661C3.71001 2.31328 4.28667 2.31328 4.64334 2.66661L6.81667 4.83994C6.91334 4.93661 6.91334 5.09661 6.81667 5.19328C6.76667 5.23994 6.70334 5.26661 6.64001 5.26661Z" fill="#1E1E1E"/>
<path d="M4.00001 13.6C3.76667 13.6 3.53334 13.51 3.35667 13.3333L1.18334 11.16C1.08667 11.0633 1.08667 10.9033 1.18334 10.8066C1.28001 10.71 1.44001 10.71 1.53667 10.8066L3.71001 12.98C3.87001 13.14 4.13001 13.14 4.29001 12.98L6.46334 10.8066C6.56001 10.71 6.72001 10.71 6.81667 10.8066C6.91334 10.9033 6.91334 11.0633 6.81667 11.16L4.64334 13.3333C4.46667 13.51 4.23334 13.6 4.00001 13.6Z" fill="#1E1E1E"/>
</svg>
