<svg width="16" height="16" viewBox="0 0 16 16" fill="none" xmlns="http://www.w3.org/2000/svg">
<path d="M10 15.1668H6C2.38 15.1668 0.833336 13.6202 0.833336 10.0002V6.00016C0.833336 2.38016 2.38 0.833496 6 0.833496H7.33334C7.60667 0.833496 7.83334 1.06016 7.83334 1.3335C7.83334 1.60683 7.60667 1.8335 7.33334 1.8335H6C2.92667 1.8335 1.83334 2.92683 1.83334 6.00016V10.0002C1.83334 13.0735 2.92667 14.1668 6 14.1668H10C13.0733 14.1668 14.1667 13.0735 14.1667 10.0002V8.66683C14.1667 8.3935 14.3933 8.16683 14.6667 8.16683C14.94 8.16683 15.1667 8.3935 15.1667 8.66683V10.0002C15.1667 13.6202 13.62 15.1668 10 15.1668Z" fill="#008678"/>
<path d="M5.66667 11.7934C5.26 11.7934 4.88667 11.6467 4.61334 11.38C4.28667 11.0534 4.14667 10.58 4.22 10.08L4.50667 8.07337C4.56 7.68671 4.81334 7.18671 5.08667 6.91337L10.34 1.66004C11.6667 0.333372 13.0133 0.333372 14.34 1.66004C15.0667 2.38671 15.3933 3.12671 15.3267 3.86671C15.2667 4.46671 14.9467 5.05337 14.34 5.65337L9.08667 10.9067C8.81334 11.18 8.31334 11.4334 7.92667 11.4867L5.92 11.7734C5.83334 11.7934 5.74667 11.7934 5.66667 11.7934ZM11.0467 2.36671L5.79334 7.62004C5.66667 7.74671 5.52 8.04004 5.49334 8.21337L5.20667 10.22C5.18 10.4134 5.22 10.5734 5.32 10.6734C5.42 10.7734 5.58 10.8134 5.77334 10.7867L7.78 10.5C7.95334 10.4734 8.25334 10.3267 8.37334 10.2L13.6267 4.94671C14.06 4.51337 14.2867 4.12671 14.32 3.76671C14.36 3.33337 14.1333 2.87337 13.6267 2.36004C12.56 1.29337 11.8267 1.59337 11.0467 2.36671Z" fill="#008678"/>
<path d="M13.2333 6.55319C13.1867 6.55319 13.14 6.54652 13.1 6.53319C11.3467 6.03986 9.95334 4.64652 9.46 2.89319C9.38667 2.62652 9.54 2.35319 9.80667 2.27319C10.0733 2.19986 10.3467 2.35319 10.42 2.61986C10.82 4.03986 11.9467 5.16652 13.3667 5.56652C13.6333 5.63986 13.7867 5.91985 13.7133 6.18652C13.6533 6.41319 13.4533 6.55319 13.2333 6.55319Z" fill="#008678"/>
</svg>
