<svg width="40" height="40" viewBox="0 0 40 40" fill="none" xmlns="http://www.w3.org/2000/svg">
<rect x="0.5" y="0.5" width="39" height="39" rx="7.5" stroke="#1E1E1E"/>
<path d="M26 17.1667H14C13.7267 17.1667 13.5 16.94 13.5 16.6667C13.5 16.3934 13.7267 16.1667 14 16.1667H26C26.2733 16.1667 26.5 16.3934 26.5 16.6667C26.5 16.94 26.2733 17.1667 26 17.1667Z" fill="#1E1E1E"/>
<path d="M24 20.5H16C15.7267 20.5 15.5 20.2733 15.5 20C15.5 19.7267 15.7267 19.5 16 19.5H24C24.2733 19.5 24.5 19.7267 24.5 20C24.5 20.2733 24.2733 20.5 24 20.5Z" fill="#1E1E1E"/>
<path d="M21.3334 23.8333H18.6667C18.3934 23.8333 18.1667 23.6066 18.1667 23.3333C18.1667 23.06 18.3934 22.8333 18.6667 22.8333H21.3334C21.6067 22.8333 21.8334 23.06 21.8334 23.3333C21.8334 23.6066 21.6067 23.8333 21.3334 23.8333Z" fill="#1E1E1E"/>
</svg>
