<svg width="20" height="20" viewBox="0 0 20 20" fill="none" xmlns="http://www.w3.org/2000/svg">
<path d="M5.15835 6.50829C4.95835 6.50829 4.77502 6.41663 4.65002 6.24996C4.50835 6.05829 4.49169 5.80827 4.60002 5.59994C4.74169 5.3166 4.94169 5.04163 5.20002 4.79163L7.90835 2.07495C9.29169 0.699951 11.5417 0.699951 12.925 2.07495L14.3834 3.55831C15 4.16664 15.375 4.98331 15.4167 5.84998C15.425 6.04164 15.35 6.22496 15.2084 6.34996C15.0667 6.47496 14.875 6.53328 14.6917 6.49995C14.525 6.47495 14.35 6.46663 14.1667 6.46663H5.83335C5.63335 6.46663 5.44169 6.48329 5.25002 6.50829C5.22502 6.50829 5.19169 6.50829 5.15835 6.50829ZM6.55002 5.20829H14.0167C13.9084 4.92496 13.7334 4.66663 13.5 4.4333L12.0334 2.94994C11.1417 2.06661 9.68335 2.06661 8.78335 2.94994L6.55002 5.20829Z" fill="#1E1E1E"/>
<path d="M4.16665 19.7917C2.78331 19.7917 1.48331 19.0583 0.783313 17.8667C0.408313 17.2667 0.208313 16.5583 0.208313 15.8333C0.208313 13.65 1.98331 11.875 4.16665 11.875C6.34998 11.875 8.12498 13.65 8.12498 15.8333C8.12498 16.5583 7.92498 17.2667 7.54998 17.875C6.84998 19.0583 5.54998 19.7917 4.16665 19.7917ZM4.16665 13.125C2.67498 13.125 1.45831 14.3417 1.45831 15.8333C1.45831 16.325 1.59165 16.8083 1.84998 17.225C2.34165 18.0583 3.20831 18.5417 4.16665 18.5417C5.12498 18.5417 5.99165 18.05 6.48331 17.2333C6.74165 16.8083 6.87498 16.3333 6.87498 15.8333C6.87498 14.3417 5.65831 13.125 4.16665 13.125Z" fill="#1E1E1E"/>
<path d="M5.40814 16.4417H2.9248C2.58314 16.4417 2.2998 16.1583 2.2998 15.8167C2.2998 15.475 2.58314 15.1917 2.9248 15.1917H5.41647C5.75814 15.1917 6.04147 15.475 6.04147 15.8167C6.04147 16.1583 5.75814 16.4417 5.40814 16.4417Z" fill="#1E1E1E"/>
<path d="M4.16669 17.7166C3.82502 17.7166 3.54169 17.4333 3.54169 17.0916V14.6C3.54169 14.2583 3.82502 13.975 4.16669 13.975C4.50835 13.975 4.79169 14.2583 4.79169 14.6V17.0916C4.79169 17.4416 4.50835 17.7166 4.16669 17.7166Z" fill="#1E1E1E"/>
<path d="M14.1666 18.9584H6.3583C6.09163 18.9584 5.8583 18.7917 5.76663 18.55C5.67496 18.3 5.74996 18.025 5.94996 17.8584C6.14996 17.6917 6.3333 17.475 6.46663 17.2417C6.7333 16.8167 6.86663 16.3334 6.86663 15.8417C6.86663 14.35 5.64996 13.1334 4.1583 13.1334C3.3833 13.1334 2.64163 13.4667 2.12496 14.0584C1.94996 14.25 1.67496 14.3251 1.4333 14.2334C1.19163 14.1417 1.02496 13.9084 1.02496 13.65V10C1.02496 7.43337 2.6083 5.57505 5.06663 5.26671C5.29163 5.23338 5.54996 5.20837 5.81663 5.20837H14.15C14.35 5.20837 14.6083 5.21671 14.875 5.25837C17.3333 5.54171 18.9416 7.40837 18.9416 10V14.1667C18.9583 17.0334 17.0333 18.9584 14.1666 18.9584ZM7.64996 17.7084H14.1666C16.3166 17.7084 17.7083 16.3167 17.7083 14.1667V10C17.7083 8.05004 16.5666 6.70836 14.7166 6.49169C14.5166 6.45836 14.3416 6.45837 14.1666 6.45837H5.8333C5.6333 6.45837 5.44163 6.47503 5.24996 6.50003C3.41663 6.73336 2.29163 8.06671 2.29163 10V12.35C2.8583 12.0417 3.5083 11.875 4.16663 11.875C6.34996 11.875 8.12496 13.65 8.12496 15.8334C8.12496 16.4917 7.9583 17.1417 7.64996 17.7084Z" fill="#1E1E1E"/>
<path d="M18.3334 14.375H15.8334C14.5667 14.375 13.5417 13.35 13.5417 12.0833C13.5417 10.8166 14.5667 9.79163 15.8334 9.79163H18.3334C18.675 9.79163 18.9584 10.075 18.9584 10.4166C18.9584 10.7583 18.675 11.0416 18.3334 11.0416H15.8334C15.2584 11.0416 14.7917 11.5083 14.7917 12.0833C14.7917 12.6583 15.2584 13.125 15.8334 13.125H18.3334C18.675 13.125 18.9584 13.4083 18.9584 13.75C18.9584 14.0916 18.675 14.375 18.3334 14.375Z" fill="#1E1E1E"/>
</svg>
