<svg width="720" height="750" viewBox="0 0 720 750" fill="none" xmlns="http://www.w3.org/2000/svg">
<path fill-rule="evenodd" clip-rule="evenodd" d="M306.924 272.091C278.997 287.461 208.168 307.387 163.653 345.589C115.443 386.975 97.1492 471.649 127.117 532.141C161.146 600.818 270.683 596.656 331.4 571.835C362.008 559.318 392.199 536.791 426.664 537.644C466.195 538.618 499.767 569.439 540.678 560.566C552.921 557.906 565.976 553.805 573.214 542.78C585.691 523.756 570.879 508.264 553.906 500.286C525.755 487.068 480.285 484.993 488.072 440.338C490.66 425.519 500.528 412.915 515.096 408.289C549.53 397.351 579.478 406.09 607.913 376.302C618.938 364.744 628.572 350.235 633.668 335.026C644.012 304.167 633.658 261.715 596.787 256.466C561.915 251.502 534.049 274.061 505.685 290.255C495.818 295.886 478.336 306.779 468.215 295.963C460.642 287.866 461.819 271.761 462.175 261.654C463.261 229.758 476.052 173.121 432.623 163.091C392.849 153.904 360.414 190.015 343.897 221.37C334.578 239.042 325.38 261.934 306.924 272.091Z" fill="#EEEEF8"/>
<path d="M222.358 276.224C240.852 276.224 255.845 261.231 255.845 242.736C255.845 224.242 240.852 209.249 222.358 209.249C203.863 209.249 188.87 224.242 188.87 242.736C188.87 261.231 203.863 276.224 222.358 276.224Z" fill="#EEEEF8"/>
<path d="M157.121 231.201C165.276 231.201 171.887 224.59 171.887 216.435C171.887 208.279 165.276 201.668 157.121 201.668C148.966 201.668 142.354 208.279 142.354 216.435C142.354 224.59 148.966 231.201 157.121 231.201Z" fill="#EEEEF8"/>
<path d="M260.656 186.816C263.311 186.816 265.462 184.664 265.462 182.01C265.462 179.356 263.311 177.204 260.656 177.204C258.002 177.204 255.851 179.356 255.851 182.01C255.851 184.664 258.002 186.816 260.656 186.816Z" fill="#EEEEF8"/>
<path fill-rule="evenodd" clip-rule="evenodd" d="M419.575 553.943C410.356 541.057 417.645 522.267 413.863 472.35C412.842 458.87 437.4 482.862 446.735 475.568C451.061 472.2 448.738 465.054 447.441 460.714C444.71 451.6 434.097 435.013 439.879 425.984C442.5 421.87 448.195 422.129 452.805 422.611C460.169 423.38 475.547 427.415 481.4 421.758C484.065 419.167 483.083 414.743 482.38 411.513C480.904 404.655 475.528 395.21 478.46 388.392C480.034 384.732 485.012 384.322 488.762 384.142C496.316 383.784 505.209 385.183 511.322 380.497C519.103 374.543 520.67 349.274 534.327 356.319C552.759 365.828 540.808 390.066 533.589 401.456C530.409 406.488 526.815 411.232 528.83 417.465C533.286 431.274 546.459 441.4 550.396 455.421C551.567 459.573 552.42 469.341 546.033 470.177C538.156 471.207 528.425 462.954 521.087 460.598C518.064 459.627 513.588 458.069 511.429 461.095C508.682 464.943 511.845 471.261 513.523 475.079C517.515 484.175 529.766 500.374 525.117 510.352C520.606 520.045 502.583 508.72 496.377 506.008C493.941 504.943 489.373 502.558 486.981 504.629C484.073 507.153 485.297 513.304 485.737 516.542C486.778 524.13 493.413 542.176 489.774 548.62C486.193 554.968 474.819 549.971 469.178 549.668C461.379 549.246 428.784 566.827 419.575 553.943Z" fill="#23CEC4"/>
<mask id="mask0_2258_19353" style="mask-type:luminance" maskUnits="userSpaceOnUse" x="413" y="355" width="139" height="204">
<path d="M419.575 553.943C410.356 541.057 417.645 522.267 413.863 472.35C412.842 458.87 437.4 482.862 446.735 475.568C451.061 472.2 448.738 465.054 447.441 460.714C444.71 451.6 434.097 435.013 439.879 425.984C442.5 421.87 448.195 422.129 452.805 422.611C460.169 423.38 475.547 427.415 481.4 421.758C484.065 419.167 483.083 414.743 482.38 411.513C480.904 404.655 475.528 395.21 478.46 388.392C480.034 384.732 485.012 384.322 488.762 384.142C496.316 383.784 505.209 385.183 511.322 380.497C519.103 374.543 520.67 349.274 534.327 356.319C552.759 365.828 540.808 390.066 533.589 401.456C530.409 406.488 526.815 411.232 528.83 417.465C533.286 431.274 546.459 441.4 550.396 455.421C551.567 459.573 552.42 469.341 546.033 470.177C538.156 471.207 528.425 462.954 521.087 460.598C518.064 459.627 513.588 458.069 511.429 461.095C508.682 464.943 511.845 471.261 513.523 475.079C517.515 484.175 529.766 500.374 525.117 510.352C520.606 520.045 502.583 508.72 496.377 506.008C493.941 504.943 489.373 502.558 486.981 504.629C484.073 507.153 485.297 513.304 485.737 516.542C486.778 524.13 493.413 542.176 489.774 548.62C486.193 554.968 474.819 549.971 469.178 549.668C461.379 549.246 428.784 566.827 419.575 553.943Z" fill="white"/>
</mask>
<g mask="url(#mask0_2258_19353)">
<path fill-rule="evenodd" clip-rule="evenodd" d="M540.79 348.116C540.446 347.909 541.124 348.917 541.273 349.33C541.563 350.127 541.837 350.925 542.055 351.751C542.701 354.193 542.967 356.794 543.15 359.353C543.7 367.075 541.533 374.528 538.419 381.462C535.194 388.629 530.255 394.51 526.963 401.587C521.36 413.637 520.803 430.259 528.83 440.413C533.566 446.4 541.055 448.181 546.017 453.809C550.558 458.963 551.073 464.268 552.126 471.191C552.369 472.757 552.875 475.616 554.828 474.861C559.444 473.075 561.833 464.253 562.485 459.625C564.594 444.799 559.61 430.203 558.449 415.661C557.196 399.913 553.488 359.384 540.79 348.116Z" fill="#20B7AF"/>
<path fill-rule="evenodd" clip-rule="evenodd" d="M532.719 474.708C532.655 472.722 529.292 469.96 528.112 468.614C527.15 467.513 526.177 466.426 525.175 465.363C521.452 461.415 512.141 452.402 506.93 459.463C504.569 462.662 505.32 467.283 506.422 470.809C508.599 477.769 513.136 483.821 514.861 490.942C515.662 494.268 516.138 498.193 513.972 501.127C507.733 509.581 498.642 500.904 491.314 500.354C486.23 499.972 485.594 504.898 487.928 508.296C496.194 520.332 519.156 523.57 526.174 508.898C531.208 498.392 538.438 483.833 532.719 474.708ZM490.442 531.877C491.285 532.596 490.36 535.666 490.133 536.516C488.991 540.756 486.169 546.348 481.46 547.267C473.787 548.762 466.307 543.358 458.694 543.269C450.314 543.172 444.675 548.562 437.952 552.591C435.099 554.3 426.3 556.607 427.3 561.222C427.761 563.337 429.847 564.564 431.674 565.372C436.062 567.314 440.962 567.781 445.702 567.971C457.122 568.427 468.418 566.576 479.196 562.803C485.903 560.45 502.725 551.536 490.442 531.877Z" fill="#20B7AF"/>
</g>
<path fill-rule="evenodd" clip-rule="evenodd" d="M504.292 422.295C504.267 422.383 504.216 422.463 504.157 422.533C502.606 425.186 501.072 427.845 499.538 430.505C495.164 438.101 491.337 445.975 487.722 453.954C490.208 453.306 492.256 451.561 494.498 450.365C499.884 447.496 504.907 444.861 510.976 443.691C513.411 443.221 515.889 442.764 518.384 442.845C518.511 442.849 520.255 442.902 520.609 443.025C521.123 443.207 521.216 443.61 521.225 443.825C521.232 443.972 521.201 444.118 521.134 444.248C521.068 444.379 520.968 444.49 520.845 444.57C520.722 444.65 520.58 444.696 520.434 444.704C520.288 444.712 520.142 444.681 520.011 444.615C519.75 444.601 518.418 444.532 518.334 444.53C515.965 444.453 513.605 444.9 511.296 445.347C505.396 446.484 500.524 449.065 495.29 451.852C492.56 453.308 490.056 455.437 486.87 455.829C479.024 473.331 472.053 491.266 462.386 507.789C465.1 507.49 466.71 506.111 468.277 504.436C469.516 503.122 470.713 501.632 472.306 500.258C475.248 497.714 478.568 495.715 482.108 494.133C485.808 492.482 489.5 490.932 493.512 490.244C494.92 490.003 496.327 489.827 497.751 489.777C498.021 489.767 498.358 489.838 498.695 489.949C498.856 490 499.083 490.07 499.243 490.121C499.376 490.014 499.538 489.949 499.708 489.936C499.878 489.924 500.048 489.963 500.195 490.049C500.342 490.135 500.46 490.263 500.532 490.418C500.605 490.572 500.628 490.745 500.6 490.913C500.558 491.21 500.423 491.415 500.272 491.565C500.061 491.767 499.757 491.888 499.378 491.87C499.142 491.86 498.839 491.778 498.518 491.668C498.266 491.584 498.013 491.454 497.81 491.461C496.462 491.51 495.13 491.677 493.798 491.905C489.93 492.57 486.365 494.079 482.799 495.672C479.403 497.186 476.225 499.098 473.41 501.534C471.463 503.215 470.115 505.079 468.555 506.558C466.853 508.174 464.923 509.362 461.905 509.519C461.737 509.527 461.568 509.484 461.433 509.402L460.599 510.783C447.948 531.44 429.262 546.885 419.241 569.295C419.055 569.716 418.55 569.91 418.128 569.716C417.707 569.531 417.513 569.025 417.707 568.604C427.754 546.13 446.473 530.623 459.158 509.903C463.684 502.515 467.611 494.815 471.269 486.972C471.253 486.883 471.244 486.789 471.253 486.694C471.834 481.226 469.702 476.75 467.746 471.754C466.195 467.8 464.914 463.805 463.844 459.694C462.967 456.349 462.327 452.953 461.787 449.541C461.602 448.356 461.417 447.171 461.273 445.981L461.054 444.167C461.054 444.148 461.046 444.128 461.046 444.108C461.02 444 461.016 443.889 461.034 443.78C461.051 443.671 461.09 443.566 461.148 443.473C461.206 443.379 461.282 443.297 461.371 443.232C461.461 443.168 461.562 443.122 461.669 443.096C461.771 443.073 462.538 443.013 462.706 443.792C462.774 444.097 462.934 445.665 462.951 445.78C463.085 446.95 463.271 448.114 463.448 449.278C463.979 452.636 464.619 455.978 465.471 459.269C466.524 463.315 467.788 467.247 469.314 471.138C470.932 475.267 472.61 479.067 472.964 483.295C481.139 465.343 488.202 446.795 498.08 429.663C499.597 427.029 501.114 424.396 502.648 421.769C502.193 414.019 499.285 407.861 497.448 400.373C496.925 398.258 496.462 396.141 496.192 393.98C496.133 393.55 495.956 392.741 495.956 392.091C495.956 391.675 496.024 391.307 496.158 391.04C496.259 390.841 496.434 390.689 496.646 390.619C496.857 390.549 497.088 390.565 497.288 390.665C497.709 390.873 497.878 391.38 497.667 391.796C497.608 391.916 497.633 392.103 497.65 392.3C497.684 392.838 497.819 393.431 497.861 393.769C498.122 395.866 498.577 397.92 499.083 399.971C500.752 406.776 503.272 412.501 504.115 419.272C508.759 411.36 513.538 403.52 518.688 395.911C519.244 395.091 522.725 388.937 524.866 386.617C525.329 386.108 525.767 385.765 526.096 385.613C526.391 385.483 526.652 385.454 526.872 385.486C527.08 385.517 527.269 385.624 527.403 385.787C527.536 385.95 527.603 386.157 527.592 386.367C527.58 386.577 527.49 386.775 527.34 386.923C527.189 387.07 526.989 387.156 526.779 387.163C526.661 387.273 525.86 388 525.304 388.721C523.239 391.421 520.559 396.149 520.087 396.855C514.49 405.128 509.324 413.676 504.292 422.295ZM498.948 490.616L498.94 490.642C498.94 490.634 498.94 490.625 498.948 490.616ZM461.492 444.675C461.665 444.759 461.861 444.781 462.049 444.738C461.872 444.78 461.686 444.771 461.492 444.675Z" fill="white"/>
<path fill-rule="evenodd" clip-rule="evenodd" d="M438.44 558.056C435.881 545.585 447.369 534.172 460.896 496.293C464.55 486.065 474.741 511.698 483.977 509.393C488.252 508.333 488.881 502.329 489.347 498.719C490.319 491.137 487.945 475.494 495.139 470.754C498.406 468.591 502.503 470.641 505.73 472.5C510.884 475.47 520.855 483.455 526.999 481.214C529.802 480.182 530.526 476.614 531.065 474.014C532.221 468.497 531.36 459.807 535.739 455.76C538.09 453.588 541.879 454.912 544.69 456.006C550.352 458.21 556.423 462.141 562.441 460.699C570.098 458.868 579.502 440.831 587.226 450.463C597.651 463.464 580.961 477.353 571.942 483.357C567.963 486.012 563.776 488.32 563.219 493.555C561.98 505.147 568.343 516.883 566.653 528.461C566.157 531.892 563.592 539.341 558.631 537.868C552.512 536.051 548.064 526.815 543.447 522.689C541.545 520.989 538.768 518.383 536.195 519.899C532.921 521.826 533.179 527.498 533.165 530.849C533.124 538.829 536.826 554.723 530.155 560.529C523.677 566.171 514.146 551.971 510.476 547.953C509.035 546.376 506.461 543.132 504.029 543.871C501.069 544.775 499.959 549.69 499.224 552.211C497.51 558.121 496.486 573.535 491.711 577.077C487.008 580.568 480.291 573.184 476.249 571.119C470.661 568.262 440.992 570.522 438.44 558.056Z" fill="#68E5DE"/>
<mask id="mask1_2258_19353" style="mask-type:luminance" maskUnits="userSpaceOnUse" x="438" y="447" width="153" height="132">
<path d="M438.44 558.056C435.881 545.585 447.369 534.172 460.896 496.293C464.55 486.065 474.741 511.698 483.977 509.393C488.252 508.333 488.881 502.329 489.347 498.719C490.319 491.137 487.945 475.494 495.139 470.754C498.406 468.591 502.503 470.641 505.73 472.5C510.884 475.47 520.855 483.455 526.999 481.214C529.802 480.182 530.526 476.614 531.065 474.014C532.221 468.497 531.36 459.807 535.739 455.76C538.09 453.588 541.879 454.912 544.69 456.006C550.352 458.21 556.423 462.141 562.441 460.699C570.098 458.868 579.502 440.831 587.226 450.463C597.651 463.464 580.961 477.353 571.942 483.357C567.963 486.012 563.776 488.32 563.219 493.555C561.98 505.147 568.343 516.883 566.653 528.461C566.157 531.892 563.592 539.341 558.631 537.868C552.512 536.051 548.064 526.815 543.447 522.689C541.545 520.989 538.768 518.383 536.195 519.899C532.921 521.826 533.179 527.498 533.165 530.849C533.124 538.829 536.826 554.723 530.155 560.529C523.677 566.171 514.146 551.971 510.476 547.953C509.035 546.376 506.461 543.132 504.029 543.871C501.069 544.775 499.959 549.69 499.224 552.211C497.51 558.121 496.486 573.535 491.711 577.077C487.008 580.568 480.291 573.184 476.249 571.119C470.661 568.262 440.992 570.522 438.44 558.056Z" fill="white"/>
</mask>
<g mask="url(#mask1_2258_19353)">
<path fill-rule="evenodd" clip-rule="evenodd" d="M594.65 446.553C594.465 446.288 594.633 447.25 594.608 447.602C594.56 448.281 594.501 448.956 594.392 449.635C594.068 451.638 593.413 453.634 592.712 455.572C590.594 461.421 586.569 466.184 582.018 470.257C577.31 474.465 571.763 477.169 567.035 481.289C558.986 488.305 553.148 500.325 555.724 510.4C557.245 516.342 562.161 520.095 563.966 525.848C565.616 531.115 564.261 535.177 562.773 540.603C562.439 541.832 561.877 544.096 563.558 544.18C567.529 544.376 572.164 538.68 574.155 535.496C580.545 525.302 581.654 512.959 585.551 501.905C589.776 489.935 600.291 458.972 594.65 446.553Z" fill="#20B7AF"/>
<path fill-rule="evenodd" clip-rule="evenodd" d="M547.377 536.846C547.979 535.367 546.412 532.241 545.986 530.868C545.639 529.745 545.28 528.63 544.892 527.522C543.448 523.408 539.557 513.75 533.425 517.232C530.647 518.809 529.689 522.446 529.347 525.395C528.671 531.215 530.025 537.14 528.965 542.93C528.467 545.633 527.535 548.67 524.986 550.117C517.645 554.284 513.806 544.946 508.606 542.149C504.999 540.207 502.923 543.616 503.526 546.873C505.663 558.408 521.461 568.285 531.405 559.806C538.532 553.739 548.595 545.413 547.377 536.846ZM497.67 565.004C498.054 565.808 496.372 567.759 495.927 568.309C493.704 571.048 489.806 574.232 486.05 573.368C479.928 571.959 476.203 565.549 470.643 562.997C464.523 560.189 458.623 562.304 452.372 563.065C449.719 563.388 442.506 562.208 441.733 565.922C441.381 567.626 442.511 569.208 443.588 570.398C446.175 573.257 449.62 575.2 453.037 576.887C461.272 580.952 470.168 583.283 479.313 584.034C485.005 584.497 500.265 583.448 497.67 565.004Z" fill="#20B7AF"/>
</g>
<path fill-rule="evenodd" clip-rule="evenodd" d="M543.621 489.085C543.574 489.141 543.511 489.183 543.444 489.216C541.439 490.656 539.445 492.107 537.45 493.559C531.758 497.706 526.377 502.237 521.116 506.913C523.153 507.25 525.227 506.637 527.263 506.492C532.154 506.145 536.702 505.851 541.539 506.975C543.481 507.425 545.449 507.899 547.254 508.773C547.345 508.818 548.609 509.426 548.829 509.632C549.147 509.933 549.083 510.26 549.019 510.42C548.977 510.53 548.906 510.627 548.815 510.702C548.723 510.776 548.614 510.824 548.497 510.843C548.381 510.862 548.262 510.849 548.152 510.807C548.042 510.765 547.944 510.695 547.87 510.604C547.683 510.509 546.728 510.023 546.667 509.993C544.953 509.164 543.075 508.721 541.233 508.294C536.531 507.202 532.112 507.506 527.359 507.842C524.879 508.019 522.346 508.764 519.879 508.011C508.402 518.297 497.427 529.186 484.934 538.158C487.024 538.824 488.656 538.338 490.354 537.621C491.693 537.06 493.058 536.358 494.676 535.87C497.666 534.962 500.757 534.58 503.873 534.574C507.128 534.571 510.344 534.639 513.514 535.444C514.626 535.727 515.717 536.058 516.779 536.486C516.98 536.567 517.204 536.729 517.416 536.921C517.516 537.011 517.66 537.136 517.761 537.226C517.894 537.191 518.034 537.196 518.163 537.242C518.292 537.288 518.404 537.373 518.484 537.484C518.564 537.595 518.608 537.728 518.611 537.865C518.614 538.002 518.574 538.136 518.499 538.251C518.371 538.455 518.205 538.562 518.045 538.622C517.824 538.701 517.562 538.691 517.289 538.554C517.119 538.469 516.923 538.31 516.724 538.125C516.566 537.981 516.423 537.803 516.272 537.742C515.266 537.337 514.234 537.025 513.182 536.757C510.125 535.982 507.015 535.925 503.877 535.93C500.889 535.932 497.932 536.298 495.07 537.166C493.092 537.765 491.493 538.693 489.865 539.269C488.088 539.899 486.283 540.141 484.016 539.27C483.89 539.222 483.78 539.135 483.708 539.03L482.644 539.772C466.61 550.804 447.849 556.039 433.173 569.216C432.899 569.465 432.464 569.442 432.218 569.162C431.969 568.888 431.992 568.454 432.272 568.208C446.988 554.992 465.795 549.722 481.874 538.655C487.61 534.71 493.008 530.341 498.255 525.777C498.271 525.707 498.296 525.635 498.333 525.568C500.546 521.744 500.443 517.762 500.639 513.455C500.792 510.046 501.156 506.695 501.713 503.328C502.162 500.586 502.801 497.884 503.52 495.202C503.771 494.273 504.022 493.342 504.305 492.422L504.737 491.019C504.743 491.004 504.743 490.987 504.75 490.972C504.766 490.885 504.8 490.802 504.848 490.727C504.897 490.653 504.959 490.589 505.032 490.539C505.106 490.489 505.188 490.454 505.275 490.436C505.362 490.418 505.451 490.417 505.538 490.433C505.62 490.449 506.203 490.655 506.072 491.283C506.022 491.529 505.627 492.732 505.602 492.822C505.319 493.724 505.075 494.64 504.825 495.552C504.118 498.191 503.496 500.853 503.046 503.547C502.498 506.861 502.142 510.161 501.991 513.516C501.83 517.075 501.82 520.412 500.699 523.631C512.564 513.124 523.808 501.814 536.655 492.465C538.629 491.027 540.602 489.589 542.586 488.162C544.784 482.324 544.66 476.854 545.757 470.756C546.064 469.033 546.416 467.328 546.924 465.653C547.021 465.318 547.155 464.667 547.367 464.19C547.503 463.885 547.673 463.636 547.859 463.484C547.998 463.371 548.176 463.317 548.354 463.334C548.533 463.352 548.697 463.439 548.811 463.578C549.052 463.868 549.01 464.296 548.72 464.532C548.637 464.601 548.595 464.746 548.543 464.896C548.391 465.303 548.297 465.782 548.217 466.044C547.724 467.668 547.388 469.325 547.089 470.995C546.091 476.536 546.071 481.562 544.478 486.808C550.472 482.516 556.541 478.322 562.807 474.418C563.483 473.998 568.048 470.618 570.377 469.614C570.884 469.392 571.317 469.283 571.609 469.278C571.868 469.28 572.069 469.344 572.219 469.439C572.362 469.529 572.466 469.67 572.511 469.833C572.555 469.996 572.537 470.17 572.46 470.321C572.383 470.471 572.252 470.587 572.094 470.646C571.935 470.705 571.76 470.703 571.604 470.639C571.481 470.682 570.656 470.954 570.012 471.302C567.614 472.609 564.102 475.204 563.525 475.568C556.715 479.814 550.13 484.401 543.621 489.085ZM517.383 537.493L517.368 537.51C517.371 537.504 517.374 537.497 517.383 537.493ZM504.893 491.534C504.992 491.652 505.129 491.733 505.28 491.762C505.137 491.735 505.004 491.668 504.893 491.534Z" fill="white"/>
<path fill-rule="evenodd" clip-rule="evenodd" d="M152.867 540.017C173.613 534.486 282.489 537.341 282.489 537.341V566.612C282.489 566.612 178.094 570.14 155.966 567.029C143.558 565.29 141.842 542.956 152.867 540.017Z" fill="#D68C04"/>
<mask id="mask2_2258_19353" style="mask-type:luminance" maskUnits="userSpaceOnUse" x="145" y="536" width="138" height="33">
<path d="M152.867 540.017C173.613 534.486 282.489 537.341 282.489 537.341V566.612C282.489 566.612 178.094 570.14 155.966 567.029C143.558 565.29 141.842 542.956 152.867 540.017Z" fill="white"/>
</mask>
<g mask="url(#mask2_2258_19353)">
<path fill-rule="evenodd" clip-rule="evenodd" d="M157.575 533.518C178.321 527.987 287.197 530.842 287.197 530.842V560.113C287.197 560.113 182.802 563.642 160.673 560.53C148.266 558.792 146.55 536.458 157.575 533.518Z" fill="#FBAB17"/>
</g>
<path fill-rule="evenodd" clip-rule="evenodd" d="M152.867 515.755C173.613 510.224 282.489 513.079 282.489 513.079V542.351C282.489 542.351 178.094 545.879 155.966 542.767C143.558 541.029 141.842 518.695 152.867 515.755Z" fill="#D68C04"/>
<mask id="mask3_2258_19353" style="mask-type:luminance" maskUnits="userSpaceOnUse" x="145" y="512" width="138" height="33">
<path d="M152.867 515.755C173.613 510.224 282.489 513.079 282.489 513.079V542.351C282.489 542.351 178.094 545.879 155.966 542.767C143.558 541.029 141.842 518.695 152.867 515.755Z" fill="white"/>
</mask>
<g mask="url(#mask3_2258_19353)">
<path fill-rule="evenodd" clip-rule="evenodd" d="M157.575 509.257C178.321 503.726 287.197 506.58 287.197 506.58V535.852C287.197 535.852 182.802 539.38 160.673 536.269C148.266 534.53 146.55 512.196 157.575 509.257Z" fill="#FBAB17"/>
</g>
<path fill-rule="evenodd" clip-rule="evenodd" d="M152.867 491.493C173.613 485.962 282.489 488.816 282.489 488.816V518.088C282.489 518.088 178.094 521.616 155.966 518.505C143.558 516.766 141.842 494.432 152.867 491.493Z" fill="#D68C04"/>
<mask id="mask4_2258_19353" style="mask-type:luminance" maskUnits="userSpaceOnUse" x="145" y="488" width="138" height="32">
<path d="M152.867 491.493C173.613 485.962 282.489 488.816 282.489 488.816V518.088C282.489 518.088 178.094 521.616 155.966 518.505C143.558 516.766 141.842 494.432 152.867 491.493Z" fill="white"/>
</mask>
<g mask="url(#mask4_2258_19353)">
<path fill-rule="evenodd" clip-rule="evenodd" d="M157.575 484.994C178.321 479.463 287.197 482.318 287.197 482.318V511.589C287.197 511.589 182.802 515.118 160.673 512.006C148.266 510.268 146.55 487.934 157.575 484.994Z" fill="#FBAB17"/>
</g>
<path fill-rule="evenodd" clip-rule="evenodd" d="M152.867 467.231C173.613 461.7 282.489 464.555 282.489 464.555V493.826C282.489 493.826 178.094 497.354 155.966 494.243C143.558 492.504 141.842 470.17 152.867 467.231Z" fill="#D68C04"/>
<mask id="mask5_2258_19353" style="mask-type:luminance" maskUnits="userSpaceOnUse" x="145" y="463" width="138" height="33">
<path d="M152.867 467.231C173.613 461.7 282.489 464.555 282.489 464.555V493.826C282.489 493.826 178.094 497.354 155.966 494.243C143.558 492.504 141.842 470.17 152.867 467.231Z" fill="white"/>
</mask>
<g mask="url(#mask5_2258_19353)">
<path fill-rule="evenodd" clip-rule="evenodd" d="M157.575 460.732C178.321 455.201 287.197 458.056 287.197 458.056V487.327C287.197 487.327 182.802 490.856 160.673 487.744C148.266 486.006 146.55 463.672 157.575 460.732Z" fill="#FBAB17"/>
</g>
<path d="M218.721 471.888C182.202 471.888 152.597 469.647 152.597 466.883C152.597 464.118 182.202 461.877 218.721 461.877C255.241 461.877 284.846 464.118 284.846 466.883C284.846 469.647 255.241 471.888 218.721 471.888Z" fill="#D68C04"/>
<path fill-rule="evenodd" clip-rule="evenodd" d="M257.416 483.003C257.972 483.465 227.424 495.809 227.15 495.133C226.564 493.672 225.801 492.292 224.999 490.938C222.67 486.991 220.025 483.211 217.168 479.625C208.853 469.202 198.689 460.703 186.569 455.004C173.246 448.736 157.669 447.568 142.906 447.219C127.809 446.863 125.609 440.857 131.632 427.71C138.082 413.631 166.03 387.136 177.538 376.542C188.826 366.146 198.127 377.064 217.28 379.22C217.279 379.348 220.588 382.478 221.868 383.872C227.925 390.491 233.248 397.922 237.778 405.658C250.571 427.491 259.528 457.17 257.416 483.003Z" fill="#20B7AF"/>
<path fill-rule="evenodd" clip-rule="evenodd" d="M258.34 492.033C258.727 492.644 225.865 495.021 225.812 494.293C225.703 492.723 225.399 491.176 225.051 489.641C224.046 485.169 222.688 480.76 221.069 476.471C216.353 464 209.285 452.792 199.499 443.651C188.74 433.597 174.273 427.706 160.328 422.846C146.068 417.876 145.817 411.485 155.583 400.819C166.042 389.398 200.77 372.754 214.973 366.201C228.906 359.769 234.409 373.014 251.977 380.942C251.937 381.064 254.126 385.057 254.917 386.777C258.651 394.935 261.438 403.64 263.376 412.393C268.855 437.098 268.274 468.094 258.34 492.033Z" fill="#68E5DE"/>
<path fill-rule="evenodd" clip-rule="evenodd" d="M173.796 415.012C173.752 415.057 173.652 415.155 173.589 415.206C173.425 415.332 173.248 415.444 173.064 415.549C172.442 415.916 171.779 416.224 171.261 416.538C170.819 416.813 169.873 417.414 169.371 418.044C168.776 418.804 168.568 419.65 168.7 420.454C168.827 421.243 169.282 421.97 170.099 422.476C170.685 422.836 171.61 423.055 172.032 423.165C173.887 423.653 175.828 423.844 177.708 424.235C184.384 425.62 190.626 428.887 196.063 432.967C212.77 445.51 222.732 463.434 231.077 482.112C231.338 482.683 231.813 483.127 232.4 483.349C232.987 483.571 233.638 483.551 234.211 483.295C234.784 483.039 235.232 482.567 235.459 481.982C235.685 481.396 235.671 480.745 235.419 480.17C226.744 460.758 216.285 442.203 198.914 429.164C192.923 424.667 186.037 421.108 178.671 419.578C177.87 419.412 177.051 419.284 176.241 419.155C176.373 419.061 176.505 418.965 176.63 418.864C177.634 418.041 178.327 417.003 178.504 415.714C178.802 413.443 177.679 411.618 176.09 410.003C175.502 409.405 174.849 408.836 174.345 408.23C174.082 407.923 173.78 407.64 173.941 407.219C174.478 405.808 175.632 404.609 176.881 403.511C178.395 402.191 180.093 401.041 181.473 400.008C189.422 394.072 198.222 389.286 207.015 384.744C208.744 383.851 210.833 382.555 212.994 381.511C214.798 380.642 216.648 379.91 218.345 380.003C219.476 380.065 220.289 380.678 221.037 381.384C221.773 382.073 222.448 382.868 223.15 383.62C224.709 385.29 226.433 386.733 228.75 387.243C231.197 387.781 233.941 386.771 235.874 385.32C236.027 385.207 236.358 384.915 236.639 384.66C237.759 385.413 238.811 386.519 239.826 387.669C241.326 389.376 242.726 391.211 243.987 392.546C253.107 402.194 259.159 413.952 267.196 424.378C267.582 424.877 268.15 425.203 268.775 425.284C269.401 425.365 270.033 425.195 270.533 424.81C271.565 424.007 271.764 422.514 270.957 421.474C262.822 410.922 256.678 399.046 247.442 389.279C244.777 386.464 241.48 381.639 237.869 379.89C236.997 379.468 236.02 379.472 235.033 379.949C234.289 380.314 233.469 381.182 233.028 381.516C232.128 382.19 230.905 382.848 229.774 382.599C228.836 382.393 228.122 381.841 227.459 381.217C226.499 380.322 225.655 379.269 224.735 378.344C223.064 376.669 221.179 375.396 218.609 375.256C216.63 375.148 214.485 375.692 212.365 376.581C209.654 377.717 206.975 379.413 204.83 380.518C195.808 385.182 186.783 390.106 178.628 396.199C175.46 398.567 170.987 401.624 169.496 405.52C168.557 407.986 169.437 409.926 171.053 411.688C171.644 412.335 172.348 412.956 172.969 413.616C173.364 414.045 173.835 414.433 173.796 415.012Z" fill="white"/>
<path d="M209.314 433.42L213.334 430.3C211.74 427.723 210.687 425.436 210.179 423.444C209.669 421.45 209.717 419.352 210.318 417.145C210.921 414.94 212.196 412.94 214.145 411.148L218.62 415.345C216.748 417.391 215.669 419.274 215.383 420.996C214.993 423.444 215.441 425.667 216.729 427.665L229.527 417.732C228.319 415.531 227.406 413.032 226.787 410.236C226.325 408.166 226.407 406.227 227.037 404.426C227.666 402.623 228.784 401.097 230.392 399.849C233.251 397.63 236.497 397.033 240.131 398.057C242.567 398.737 245.144 400.55 247.863 403.501L249.784 402.01L251.96 404.814L250.04 406.305C251.965 409.247 252.984 411.974 253.098 414.487C253.254 417.702 252.222 420.506 250.005 422.906L245.56 418.471C246.92 416.964 247.676 415.44 247.826 413.896C247.976 412.352 247.581 410.698 246.645 408.94L235.053 417.936C236.409 420.728 237.247 422.622 237.566 423.617C238.165 425.526 238.432 427.254 238.369 428.803C238.305 430.349 237.925 431.796 237.228 433.141C236.53 434.487 235.55 435.652 234.284 436.634C231.5 438.795 228.363 439.549 224.873 438.895C221.383 438.241 218.276 436.297 215.555 433.069L211.491 436.224L209.314 433.42ZM244.513 406.101C242.838 404.434 241.08 403.46 239.238 403.178C237.399 402.898 235.786 403.295 234.401 404.369C233.032 405.433 232.237 406.776 232.02 408.402C231.8 410.025 232.259 412.138 233.391 414.733L244.513 406.101ZM218.906 430.469C220.536 432.17 222.401 433.174 224.501 433.482C226.6 433.788 228.505 433.277 230.218 431.948C231.677 430.816 232.518 429.479 232.74 427.935C232.961 426.392 232.43 424.07 231.145 420.97L218.906 430.469Z" fill="white"/>
<path fill-rule="evenodd" clip-rule="evenodd" d="M212.445 244.16C211.995 244.734 236.242 261.436 248.986 288.463C262.418 316.932 255.146 364.728 255.146 364.728C255.146 364.728 265.519 366.465 272.166 367.941C277.087 369.034 282.124 369.694 287.192 369.885C294.665 370.164 301.937 369.351 309.386 363.133C340.943 336.791 342.105 274.713 322.089 245.359C300.503 213.71 227.03 217.059 212.445 244.16Z" fill="#6B59E2"/>
<path fill-rule="evenodd" clip-rule="evenodd" d="M210.971 244.451C223.276 237.915 236.997 235.706 249.192 244.571C279.55 266.627 268.992 316.77 260.858 347.035C243.482 411.73 190.765 518.713 256.452 574.666C286.749 589.482 367.684 587.353 425.89 578.567C441.592 576.204 455.633 573.349 466.585 570.224C467.852 569.867 433.384 506.93 450.563 408.199C459.521 356.743 472.258 268.519 464.271 252.109C453.824 230.657 424.856 222.255 404.195 214.479C343.466 191.616 240.837 198.019 210.971 244.451Z" fill="#988CEB"/>
<mask id="mask6_2258_19353" style="mask-type:luminance" maskUnits="userSpaceOnUse" x="210" y="201" width="257" height="385">
<path d="M210.971 244.451C223.276 237.915 236.997 235.706 249.192 244.571C279.55 266.627 268.992 316.77 260.858 347.035C243.482 411.73 190.765 518.713 256.452 574.666C286.749 589.482 367.684 587.353 425.89 578.567C441.592 576.204 455.633 573.349 466.585 570.224C467.852 569.867 433.384 506.93 450.563 408.199C459.521 356.743 472.258 268.519 464.271 252.109C453.824 230.657 424.856 222.255 404.195 214.479C343.466 191.616 240.837 198.019 210.971 244.451Z" fill="white"/>
</mask>
<g mask="url(#mask6_2258_19353)">
<path fill-rule="evenodd" clip-rule="evenodd" d="M190.036 269.335C191.163 269.369 194.869 265.014 195.6 264.289C200.858 259.111 206.168 254.045 211.934 249.423C228.816 235.879 251.272 219.335 273.118 215.703C312.893 209.088 339.754 252.214 330.963 287.789C325.41 310.272 307.086 328.907 296.893 349.462C291.056 361.26 286.194 373.682 282.986 386.47C279.747 399.438 274.214 429.488 288.021 439.141C295.289 444.226 302.802 433.858 306.223 428.762C317.4 412.093 323.603 392.411 337.49 377.48C341.723 372.928 352.85 362.039 359.814 367.784C366.22 373.058 359.296 388.052 356.931 393.618C346.556 417.957 334.079 440.392 330.628 467.126C328.069 486.974 330.516 508.285 341.338 525.533C345.348 531.919 354.22 542.284 362.758 536.72C373.387 529.777 371.102 508.722 370.767 498.222C369.935 471.695 369.641 443.232 385.904 420.543C387.528 418.276 389.518 416.195 391.629 414.377C410.329 398.297 404.806 438.144 412.522 438.634C416.298 438.873 418.359 433.06 419.415 430.306C422.176 423.137 420.044 405.964 427.8 401.802C436.185 397.305 435.779 423.395 444.571 415.138C452.458 407.727 446.114 391.457 444.428 382.786C439.241 356.165 435.2 327.842 436.723 300.716C437.495 287.055 439.109 272.045 446.205 260.024C455.585 244.117 478 236.159 468.853 214.202C467.442 210.817 465.564 207.602 463.473 204.595C446.875 180.748 416.024 169.579 388.421 165.832C325.471 157.287 204.898 206.928 190.036 269.335Z" fill="#C1BAF3"/>
</g>
<path fill-rule="evenodd" clip-rule="evenodd" d="M314.842 341.572C330.623 342.469 351.708 342.503 367.51 343.126C368.902 343.179 370.24 342.818 371.232 342.121C372.223 341.424 372.786 340.448 372.797 339.409C372.806 338.368 372.263 337.349 371.286 336.575C370.309 335.801 368.978 335.334 367.586 335.278C351.866 334.66 330.878 334.63 315.165 333.735C313.773 333.658 312.421 333.995 311.406 334.673C310.39 335.351 309.794 336.315 309.748 337.354C309.708 338.394 310.222 339.421 311.177 340.212C312.132 341.002 313.449 341.491 314.842 341.572Z" fill="white"/>
<path fill-rule="evenodd" clip-rule="evenodd" d="M312.764 371.143C316.155 371.68 320.676 370.954 324.096 370.934C332.245 370.889 340.398 370.964 348.559 371.128C374.733 371.656 400.956 372.621 427.142 373.532C428.525 373.57 429.847 373.198 430.821 372.498C431.796 371.797 432.344 370.825 432.346 369.792C432.349 368.758 431.806 367.747 430.836 366.978C429.866 366.209 428.546 365.744 427.164 365.683C400.909 364.77 374.617 363.802 348.36 363.272C340.076 363.105 331.812 363.03 323.553 363.077C320.795 363.091 317.206 363.887 314.496 363.458C313.816 363.35 313.12 363.343 312.448 363.436C311.776 363.529 311.141 363.722 310.579 364.002C310.018 364.283 309.541 364.646 309.176 365.07C308.81 365.495 308.564 365.974 308.45 366.478C308.336 366.983 308.358 367.504 308.513 368.011C308.668 368.519 308.954 369.003 309.355 369.436C309.756 369.87 310.263 370.243 310.848 370.536C311.433 370.829 312.084 371.035 312.764 371.143Z" fill="white"/>
<path d="M289.487 348.467C293.719 348.467 297.15 345.036 297.15 340.804C297.15 336.571 293.719 333.14 289.487 333.14C285.254 333.14 281.823 336.571 281.823 340.804C281.823 345.036 285.254 348.467 289.487 348.467Z" fill="white"/>
<path fill-rule="evenodd" clip-rule="evenodd" d="M310.133 404.882C325.914 405.78 346.999 405.814 362.801 406.437C364.193 406.49 365.531 406.129 366.522 405.432C367.514 404.735 368.077 403.759 368.088 402.719C368.097 401.679 367.554 400.66 366.577 399.886C365.6 399.111 364.269 398.645 362.877 398.589C347.157 397.971 326.169 397.94 310.456 397.046C309.064 396.968 307.712 397.306 306.696 397.984C305.681 398.662 305.085 399.626 305.038 400.665C304.999 401.705 305.513 402.732 306.468 403.523C307.423 404.313 308.74 404.802 310.133 404.882Z" fill="white"/>
<path fill-rule="evenodd" clip-rule="evenodd" d="M308.055 434.455C311.446 434.991 315.967 434.265 319.387 434.245C327.536 434.2 335.689 434.275 343.85 434.439C370.024 434.967 396.247 435.932 422.433 436.843C423.816 436.881 425.138 436.509 426.112 435.809C427.087 435.108 427.635 434.136 427.637 433.103C427.64 432.069 427.097 431.058 426.127 430.289C425.157 429.52 423.837 429.055 422.455 428.995C396.2 428.081 369.908 427.114 343.651 426.583C335.367 426.416 327.103 426.341 318.844 426.388C316.086 426.402 312.497 427.198 309.787 426.769C309.107 426.661 308.411 426.654 307.739 426.747C307.067 426.84 306.432 427.033 305.87 427.313C305.309 427.594 304.832 427.957 304.467 428.382C304.101 428.806 303.855 429.285 303.741 429.789C303.627 430.294 303.649 430.815 303.804 431.323C303.959 431.83 304.245 432.314 304.646 432.748C305.047 433.181 305.554 433.554 306.139 433.847C306.724 434.14 307.375 434.347 308.055 434.455Z" fill="white"/>
<path d="M284.786 411.777C289.019 411.777 292.45 408.346 292.45 404.114C292.45 399.881 289.019 396.451 284.786 396.451C280.554 396.451 277.123 399.881 277.123 404.114C277.123 408.346 280.554 411.777 284.786 411.777Z" fill="white"/>
<path fill-rule="evenodd" clip-rule="evenodd" d="M305.423 468.193C321.205 469.091 342.29 469.125 358.092 469.748C359.484 469.801 360.822 469.439 361.813 468.743C362.805 468.046 363.368 467.07 363.379 466.03C363.388 464.99 362.844 463.971 361.868 463.197C360.891 462.422 359.56 461.956 358.168 461.9C342.448 461.282 321.46 461.251 305.747 460.357C304.355 460.279 303.003 460.616 301.987 461.295C300.972 461.973 300.376 462.937 300.329 463.976C300.29 465.016 300.804 466.043 301.759 466.834C302.713 467.624 304.031 468.113 305.423 468.193Z" fill="white"/>
<path fill-rule="evenodd" clip-rule="evenodd" d="M303.346 497.765C306.737 498.302 311.258 497.576 314.678 497.556C322.827 497.511 330.98 497.586 339.141 497.75C365.315 498.278 391.538 499.243 417.725 500.154C419.107 500.192 420.429 499.82 421.403 499.12C422.378 498.419 422.926 497.447 422.928 496.413C422.931 495.38 422.388 494.369 421.418 493.6C420.448 492.831 419.128 492.366 417.746 492.305C391.491 491.391 365.199 490.424 338.942 489.894C330.658 489.727 322.394 489.652 314.135 489.699C311.377 489.713 307.788 490.509 305.078 490.08C304.398 489.972 303.702 489.965 303.03 490.058C302.358 490.151 301.723 490.344 301.161 490.624C300.6 490.904 300.123 491.267 299.758 491.692C299.392 492.117 299.146 492.596 299.032 493.1C298.918 493.605 298.94 494.126 299.095 494.633C299.25 495.141 299.536 495.625 299.937 496.058C300.338 496.492 300.845 496.865 301.43 497.158C302.015 497.451 302.666 497.657 303.346 497.765Z" fill="white"/>
<path d="M280.077 475.088C284.31 475.088 287.741 471.657 287.741 467.425C287.741 463.192 284.31 459.762 280.077 459.762C275.845 459.762 272.414 463.192 272.414 467.425C272.414 471.657 275.845 475.088 280.077 475.088Z" fill="white"/>
<path d="M373.441 305.926L362.325 305.753C361.99 305.748 361.831 305.631 361.834 305.403L361.913 300.309C357.633 299.358 354.127 297.591 351.408 295.008C348.677 292.425 347.336 289.523 347.386 286.298L347.438 283.002C347.442 282.745 347.605 282.619 347.94 282.624L359.622 282.806C359.864 282.809 359.989 282.939 359.985 283.197L359.934 286.492C359.91 288.033 360.686 289.387 362.249 290.553C363.813 291.719 365.651 292.318 367.775 292.351C369.991 292.386 371.847 291.844 373.365 290.726C374.883 289.607 375.654 288.349 375.675 286.95C375.704 285.124 374.054 283.543 370.75 282.208C369.637 281.734 367.881 281.036 365.505 280.114C363.118 279.192 360.915 278.345 358.883 277.571C354.913 275.968 352.035 273.955 350.237 271.529C348.438 269.103 347.568 266.407 347.614 263.439C347.665 260.157 349.094 257.326 351.902 254.942C354.71 252.56 358.199 250.973 362.379 250.182L362.458 245.089C362.462 244.86 362.648 244.749 363.018 244.754L374.134 244.927C374.549 244.933 374.755 245.051 374.752 245.279L374.671 250.458C378.744 251.378 382.101 253.085 384.752 255.581C387.392 258.077 388.699 260.909 388.65 264.076L388.559 269.94C388.556 270.111 388.428 270.194 388.174 270.19L376.435 270.008C376.181 270.004 376.067 269.917 376.069 269.746L376.033 263.88C376.059 262.196 375.284 260.829 373.718 259.777C372.153 258.725 370.349 258.183 368.306 258.151C366.182 258.118 364.361 258.647 362.854 259.736C361.337 260.826 360.566 262.128 360.542 263.64C360.52 265.094 360.962 266.343 361.893 267.385C362.812 268.427 364.493 269.466 366.936 270.504L377.482 274.691C380.96 276.03 383.693 277.677 385.684 279.635C387.674 281.592 388.652 284.027 388.607 286.937C388.555 290.276 387.183 293.137 384.502 295.521C381.821 297.907 378.366 299.537 374.15 300.413L374.07 305.593C374.066 305.821 373.857 305.932 373.441 305.926Z" fill="white"/>
<path fill-rule="evenodd" clip-rule="evenodd" d="M332.18 221.081C358.617 191.129 404.397 188.275 434.35 214.713C464.303 241.15 467.156 286.93 440.72 316.882C414.283 346.834 368.503 349.688 338.55 323.25C308.597 296.812 305.743 251.032 332.18 221.081ZM345.747 233.055C365.57 210.597 399.91 208.451 422.375 228.28C444.839 248.107 446.975 282.448 427.152 304.907C407.32 327.376 372.989 329.51 350.525 309.683C328.06 289.855 325.915 255.524 345.747 233.055Z" fill="#201471"/>
<path fill-rule="evenodd" clip-rule="evenodd" d="M445.527 303.813C435.394 300.646 423.919 313.647 428.32 323.308C432.714 332.975 461.779 358.629 471.917 361.788C482.05 364.955 493.525 351.954 489.124 342.293C484.723 332.633 455.658 306.98 445.527 303.813Z" fill="#201471"/>
<path fill-rule="evenodd" clip-rule="evenodd" d="M478.074 321.627C461.554 316.452 442.865 337.626 450.051 353.376C457.225 369.136 504.631 410.978 521.16 416.139C537.68 421.313 556.369 400.139 549.183 384.39C541.998 368.642 494.592 326.8 478.074 321.627Z" fill="#FBAB17"/>
<mask id="mask7_2258_19353" style="mask-type:luminance" maskUnits="userSpaceOnUse" x="448" y="320" width="103" height="97">
<path d="M478.074 321.627C461.554 316.452 442.865 337.626 450.051 353.376C457.225 369.136 504.631 410.978 521.16 416.139C537.68 421.313 556.369 400.139 549.183 384.39C541.998 368.642 494.592 326.8 478.074 321.627Z" fill="white"/>
</mask>
<g mask="url(#mask7_2258_19353)">
<path fill-rule="evenodd" clip-rule="evenodd" d="M454.359 319.135C453.74 318.672 454.186 320.67 454.197 321.439C454.197 322.905 454.278 324.355 454.42 325.813C454.856 330.378 455.679 335.031 456.897 339.453C460.785 353.658 470.043 367.428 485.535 370.254C488.936 370.876 493.738 370.929 496.326 368.175C498.154 366.223 494.164 361.575 499.382 361.661C499.991 361.671 500.61 361.847 501.148 362.115C503.778 363.405 505.016 366.963 505.92 369.513C508.244 376.061 511.615 387.387 520.741 386.607C527.989 385.988 520.376 375.7 524.243 372.748C525.472 371.814 527.035 373.023 527.939 373.821C529.472 375.165 532.741 381.346 535.339 380.477C536.608 380.05 536.141 377.391 536.07 376.428C535.796 372.856 535.339 367.446 540.639 367.887C545.796 368.317 549.613 372.879 552.323 376.865C559.115 386.858 562.17 401.67 555.308 412.456C545.572 427.75 523.198 425.187 508.478 420.843C502.277 419.026 496.201 416.811 490.286 414.212C485.433 412.071 480.713 409.577 476.144 406.883C455.719 394.827 422.3 365.574 454.359 319.135Z" fill="#D68C04"/>
</g>
<path d="M570.777 304.346C590.283 303.376 605.31 286.778 604.34 267.272C603.371 247.766 586.772 232.74 567.267 233.709C547.761 234.679 532.734 251.277 533.704 270.783C534.673 290.289 551.272 305.315 570.777 304.346Z" fill="#20B7AF"/>
<path d="M581.465 303.309C600.971 302.34 615.997 285.741 615.028 266.235C614.058 246.73 597.46 231.703 577.954 232.673C558.448 233.642 543.422 250.241 544.391 269.746C545.361 289.252 561.959 304.279 581.465 303.309Z" fill="#68E5DE"/>
<path fill-rule="evenodd" clip-rule="evenodd" d="M558.024 274.075C559.991 278.05 569.206 295.048 575.71 291.322C582.251 287.57 594.49 258.818 597.3 251.569C598.132 249.441 594.091 246.514 592.61 247.827C588.842 251.178 579.481 268.404 574.685 271.679C571.404 273.922 566.656 267.068 563.882 267.466C561.329 267.833 556.553 271.122 558.024 274.075Z" fill="white"/>
</svg>
