<svg width="697" height="591" viewBox="0 0 697 591" fill="none" xmlns="http://www.w3.org/2000/svg">
<g clip-path="url(#clip0_2258_19480)">
<path d="M523.129 52.834C523.129 52.834 529.672 130.893 501.638 173.733C473.603 216.574 460.222 244.672 460.222 244.672C460.222 244.672 462.445 207.56 480.794 176.127C499.142 144.687 516.298 83.0361 523.129 52.834Z" fill="#5DB3AB"/>
<path d="M521.936 107.498C521.936 107.498 523.939 150.846 508.48 173.538C493.022 196.23 463.213 231.843 458.236 246.563C453.259 261.283 451.271 250.301 451.271 250.301C451.271 250.301 452.918 225.991 483.349 194.644C517.475 159.497 521.936 107.498 521.936 107.498Z" fill="#49908C"/>
<path d="M458.799 166.686C458.608 168.608 458.457 170.714 458.359 173.07C457.286 199.609 457.15 229.12 457.15 229.12C457.15 229.12 471.782 202.185 477.612 175.551C483.439 148.933 499.441 140.989 498.229 121.079C497.081 102.076 498.204 77.7825 498.31 75.6267C498.316 75.532 498.317 75.4774 498.317 75.4774C498.317 75.4774 475.997 102.585 471.794 126.221C467.963 147.769 460.848 146.919 458.799 166.686Z" fill="#397C77"/>
<path d="M458.799 166.686C461.187 173.655 463.936 180.178 467.122 186.592C463.461 175.305 467.747 161.019 475.067 151.681C480.56 144.681 487.946 139.154 490.597 130.066C492.021 125.18 491.828 119.999 491.894 114.942C492.064 101.782 493.258 87.346 498.31 75.6268C498.316 75.5321 498.317 75.4775 498.317 75.4775C498.317 75.4775 475.997 102.585 471.794 126.221C467.963 147.769 460.848 146.919 458.799 166.686Z" fill="#49908C"/>
<path d="M429.805 180.014C429.809 180.028 429.809 180.028 429.811 180.036C429.506 182.781 429.39 185.359 429.504 187.727C430.674 211.942 456.331 243.975 456.331 243.975C456.331 243.975 456.335 243.959 456.334 243.928C460.739 200.672 439.293 181.866 448.69 151.59C457.95 121.731 446.491 94.7603 446.169 94.0235C450.868 115.585 432.586 154.779 429.805 180.014Z" fill="#397C77"/>
<path d="M429.804 180.038C429.499 182.783 429.382 185.361 429.497 187.729C430.666 211.944 456.324 243.977 456.324 243.977C456.324 243.977 456.327 243.961 456.327 243.93C456.384 242.898 468.4 225.818 454.927 208.192C443.194 192.833 430.084 182.851 429.804 180.038Z" fill="#2D726D"/>
<path d="M440.723 161.497C440.723 161.497 470.09 176.658 461.18 214.46C452.27 252.261 454.819 262.557 454.819 262.557L457.732 238.134C457.732 238.134 472.193 206.011 461.298 175L440.723 161.497Z" fill="#49908C"/>
<path d="M422.647 62.1634C422.647 62.1634 435.735 70.583 432.351 95.7695C428.967 120.956 422.484 145.125 440.721 161.49C458.958 177.855 473.179 196.329 457.73 238.127C457.73 238.127 473.391 209.495 463.346 165.514C453.3 121.533 456.761 133.867 447.349 118.593C437.932 103.327 437.623 62.0097 422.647 62.1634Z" fill="#5BB1A8"/>
<path d="M235.357 190.04C224.223 193.023 217.608 204.471 220.593 215.613L229.484 248.792L269.813 237.986L260.923 204.806C257.937 193.664 246.492 187.056 235.357 190.04Z" fill="#F9C39B"/>
<path d="M369.949 444.263L364.253 423.007L486.931 390.136L426.748 165.529C423.05 151.729 408.867 143.54 395.066 147.238L235.355 190.033C246.49 187.049 257.935 193.657 260.921 204.799L262.208 209.602C262.208 209.602 262.21 209.609 262.212 209.617L319.2 422.299L327.888 454.725C330.985 466.28 342.861 473.137 354.416 470.041L357.857 469.119L356.284 469.331C365.799 465.376 372.69 454.492 369.949 444.263Z" fill="#F9CFAA"/>
<path d="M405.684 164.115L279.971 197.8L281.465 203.378L407.178 169.694L405.684 164.115Z" fill="#FCF2F2"/>
<path d="M410.397 181.705L284.684 215.39L286.179 220.968L411.892 187.283L410.397 181.705Z" fill="#FCF2F2"/>
<path d="M415.108 199.287L289.395 232.972L290.89 238.55L416.603 204.865L415.108 199.287Z" fill="#FCF2F2"/>
<path d="M419.821 216.877L294.108 250.561L295.603 256.139L421.316 222.455L419.821 216.877Z" fill="#FCF2F2"/>
<path d="M424.532 234.459L298.819 268.144L300.314 273.722L426.027 240.037L424.532 234.459Z" fill="#FCF2F2"/>
<path d="M429.244 252.041L303.531 285.726L305.025 291.304L430.738 257.619L429.244 252.041Z" fill="#FCF2F2"/>
<path d="M433.956 269.631L308.244 303.315L309.738 308.894L435.451 275.209L433.956 269.631Z" fill="#FCF2F2"/>
<path d="M438.667 287.213L312.955 320.898L314.449 326.476L440.162 292.791L438.667 287.213Z" fill="#FCF2F2"/>
<path d="M443.381 304.802L317.668 338.487L319.163 344.065L444.875 310.381L443.381 304.802Z" fill="#FCF2F2"/>
<path d="M448.092 322.385L322.379 356.069L323.874 361.648L449.586 327.963L448.092 322.385Z" fill="#FCF2F2"/>
<path d="M452.805 339.974L327.092 373.659L328.587 379.237L454.3 345.552L452.805 339.974Z" fill="#FCF2F2"/>
<path d="M461.175 371.243L419.288 382.467L420.783 388.045L462.67 376.821L461.175 371.243Z" fill="#F44040"/>
<path d="M362.324 421.894L368.427 444.67C371.168 454.899 365.807 465.374 356.282 469.324L356.334 469.519L506.671 429.237C520.066 425.648 528.008 411.88 524.421 398.493L519.413 379.802L362.324 421.894Z" fill="#FEDCB9"/>
<path d="M185.414 203.422C185.248 202.193 185.006 200.969 184.677 199.745C180.547 184.329 165.119 175.03 150.29 179.003C148.392 179.512 146.545 180.24 144.761 181.176C139.072 176.085 131.979 172.939 124.501 172.24C120.521 171.847 116.49 172.189 112.512 173.255C102.776 175.864 94.6513 182.692 90.2269 191.999C87.5191 197.686 86.3323 203.921 86.7297 210.244C85.7912 210.363 84.8681 210.54 83.9408 210.789C73.5088 213.584 67.0359 223.968 68.4692 234.765L185.416 203.429L185.414 203.422Z" fill="#DEE8F9"/>
<path d="M320.031 258.43L159.885 301.341C150.938 303.738 145.63 312.933 148.027 321.88L172.621 413.667C175.019 422.614 184.213 427.923 193.16 425.525L353.306 382.614C362.253 380.217 367.561 371.022 365.164 362.076L340.57 270.288C338.172 261.342 328.978 256.033 320.031 258.43Z" fill="#4979FF"/>
<path d="M190.198 402.676C189.74 400.966 189.724 399.689 190.157 398.843C190.59 397.997 191.434 397.407 192.694 397.069C193.296 396.908 193.815 396.846 194.247 396.893C194.679 396.941 195.041 397.046 195.351 397.219C195.661 397.392 195.918 397.595 196.133 397.817C196.34 398.041 196.539 398.321 196.72 398.646C197.065 399.268 197.34 399.947 197.534 400.671C197.971 402.301 198.016 403.571 197.667 404.471C197.318 405.372 196.472 406.011 195.125 406.372C194.371 406.574 193.723 406.615 193.195 406.501C192.667 406.386 192.188 406.134 191.767 405.75C191.46 405.475 191.173 405.07 190.897 404.531C190.62 403.991 190.384 403.371 190.198 402.676ZM192.677 402.019C192.984 403.164 193.295 403.919 193.611 404.285C193.926 404.651 194.272 404.783 194.656 404.68C194.91 404.612 195.104 404.467 195.244 404.236C195.383 404.004 195.447 403.692 195.431 403.285C195.415 402.877 195.298 402.265 195.08 401.453C194.76 400.258 194.445 399.488 194.132 399.129C193.818 398.771 193.459 398.65 193.054 398.758C192.641 398.869 192.4 399.159 192.324 399.629C192.261 400.089 192.375 400.889 192.677 402.019ZM198.573 400.432C198.114 398.722 198.098 397.445 198.532 396.599C198.965 395.753 199.808 395.163 201.069 394.825C201.67 394.664 202.189 394.602 202.621 394.65C203.053 394.697 203.415 394.802 203.726 394.975C204.036 395.148 204.292 395.351 204.507 395.573C204.715 395.797 204.914 396.077 205.094 396.402C205.439 397.024 205.715 397.703 205.909 398.427C206.345 400.057 206.39 401.327 206.042 402.227C205.693 403.128 204.847 403.767 203.499 404.128C202.746 404.33 202.097 404.371 201.57 404.257C201.042 404.142 200.563 403.89 200.142 403.506C199.835 403.231 199.548 402.826 199.271 402.287C198.995 401.747 198.759 401.127 198.573 400.432ZM201.052 399.775C201.359 400.92 201.67 401.675 201.985 402.041C202.301 402.407 202.647 402.539 203.031 402.436C203.284 402.368 203.478 402.223 203.618 401.992C203.758 401.76 203.822 401.448 203.806 401.041C203.79 400.633 203.672 400.021 203.455 399.209C203.135 398.014 202.82 397.244 202.506 396.886C202.193 396.527 201.834 396.406 201.428 396.514C201.015 396.625 200.775 396.915 200.699 397.385C200.628 397.847 200.749 398.645 201.052 399.775ZM206.94 398.19C206.482 396.48 206.466 395.203 206.899 394.357C207.332 393.511 208.176 392.921 209.436 392.583C210.037 392.422 210.557 392.36 210.989 392.408C211.421 392.455 211.783 392.56 212.093 392.733C212.403 392.906 212.66 393.109 212.874 393.331C213.082 393.555 213.281 393.835 213.461 394.16C213.807 394.782 214.082 395.461 214.276 396.185C214.713 397.815 214.758 399.085 214.409 399.985C214.06 400.886 213.214 401.525 211.867 401.886C211.113 402.088 210.465 402.129 209.937 402.015C209.409 401.9 208.93 401.648 208.509 401.264C208.202 400.989 207.915 400.584 207.639 400.045C207.362 399.505 207.126 398.885 206.94 398.19ZM209.419 397.533C209.726 398.678 210.037 399.433 210.353 399.799C210.668 400.165 211.014 400.297 211.398 400.194C211.652 400.126 211.846 399.981 211.985 399.75C212.125 399.518 212.189 399.206 212.173 398.799C212.157 398.391 212.04 397.779 211.822 396.967C211.502 395.772 211.187 395.002 210.873 394.644C210.56 394.285 210.201 394.164 209.796 394.272C209.383 394.383 209.142 394.673 209.066 395.143C209.003 395.603 209.117 396.403 209.419 397.533ZM215.314 395.946C214.856 394.236 214.84 392.959 215.274 392.113C215.707 391.268 216.55 390.677 217.811 390.339C218.412 390.178 218.931 390.116 219.363 390.164C219.795 390.211 220.157 390.316 220.468 390.489C220.778 390.662 221.034 390.865 221.249 391.087C221.457 391.311 221.656 391.591 221.836 391.916C222.181 392.538 222.456 393.217 222.651 393.941C223.087 395.571 223.132 396.841 222.784 397.742C222.435 398.642 221.589 399.281 220.241 399.642C219.488 399.844 218.839 399.885 218.311 399.771C217.784 399.656 217.305 399.404 216.883 399.02C216.577 398.745 216.29 398.34 216.013 397.801C215.737 397.262 215.501 396.641 215.314 395.946ZM217.794 395.289C218.101 396.434 218.412 397.189 218.727 397.555C219.043 397.921 219.389 398.053 219.773 397.95C220.026 397.883 220.22 397.737 220.36 397.506C220.5 397.274 220.564 396.962 220.548 396.555C220.532 396.148 220.414 395.535 220.197 394.723C219.877 393.528 219.562 392.758 219.248 392.4C218.935 392.041 218.576 391.92 218.17 392.028C217.757 392.139 217.517 392.429 217.441 392.899C217.378 393.359 217.491 394.159 217.794 395.289ZM232.114 391.444C231.656 389.735 231.64 388.458 232.073 387.612C232.507 386.766 233.35 386.175 234.611 385.837C235.212 385.676 235.731 385.615 236.163 385.662C236.595 385.709 236.957 385.814 237.267 385.987C237.578 386.16 237.834 386.363 238.049 386.585C238.256 386.809 238.456 387.09 238.636 387.414C238.981 388.036 239.256 388.716 239.45 389.44C239.887 391.07 239.932 392.339 239.584 393.24C239.235 394.141 238.389 394.779 237.041 395.14C236.288 395.342 235.639 395.384 235.111 395.269C234.584 395.154 234.105 394.902 233.683 394.518C233.377 394.243 233.09 393.839 232.813 393.299C232.537 392.76 232.301 392.14 232.114 391.444ZM234.594 390.788C234.901 391.932 235.212 392.688 235.527 393.054C235.842 393.419 236.189 393.552 236.572 393.449C236.826 393.381 237.02 393.236 237.16 393.004C237.3 392.773 237.364 392.46 237.348 392.053C237.332 391.646 237.214 391.033 236.997 390.222C236.676 389.026 236.361 388.257 236.048 387.898C235.734 387.539 235.376 387.418 234.97 387.527C234.557 387.637 234.316 387.927 234.241 388.398C234.17 388.859 234.291 389.658 234.594 390.788ZM240.489 389.201C240.031 387.491 240.015 386.214 240.448 385.368C240.881 384.522 241.725 383.931 242.985 383.593C243.586 383.432 244.106 383.371 244.538 383.418C244.97 383.465 245.332 383.57 245.642 383.743C245.952 383.916 246.209 384.119 246.423 384.341C246.631 384.565 246.83 384.846 247.01 385.17C247.356 385.792 247.631 386.472 247.825 387.196C248.262 388.826 248.307 390.095 247.958 390.996C247.609 391.897 246.763 392.535 245.416 392.896C244.662 393.098 244.014 393.14 243.486 393.025C242.958 392.91 242.479 392.658 242.058 392.274C241.751 391.999 241.464 391.595 241.188 391.055C240.911 390.516 240.675 389.896 240.489 389.201ZM242.961 388.546C243.268 389.69 243.579 390.446 243.894 390.812C244.21 391.177 244.556 391.31 244.94 391.207C245.193 391.139 245.387 390.994 245.527 390.762C245.667 390.531 245.731 390.218 245.715 389.811C245.699 389.404 245.581 388.791 245.364 387.98C245.044 386.784 244.729 386.015 244.415 385.656C244.102 385.297 243.743 385.176 243.337 385.285C242.925 385.395 242.684 385.685 242.608 386.156C242.545 386.615 242.658 387.416 242.961 388.546ZM248.856 386.959C248.398 385.249 248.382 383.972 248.815 383.126C249.249 382.28 250.092 381.689 251.353 381.351C251.954 381.19 252.473 381.129 252.905 381.176C253.337 381.223 253.699 381.328 254.009 381.501C254.32 381.674 254.576 381.877 254.791 382.099C254.998 382.323 255.198 382.604 255.378 382.928C255.723 383.55 255.998 384.23 256.192 384.954C256.629 386.584 256.674 387.853 256.325 388.754C255.977 389.655 255.131 390.293 253.783 390.654C253.03 390.856 252.381 390.898 251.853 390.783C251.326 390.668 250.846 390.416 250.425 390.032C250.119 389.757 249.832 389.353 249.555 388.813C249.279 388.274 249.043 387.654 248.856 386.959ZM251.336 386.302C251.642 387.447 251.954 388.202 252.269 388.568C252.584 388.933 252.93 389.066 253.314 388.963C253.568 388.895 253.762 388.75 253.902 388.518C254.042 388.287 254.106 387.975 254.09 387.567C254.074 387.16 253.956 386.547 253.739 385.736C253.418 384.54 253.103 383.771 252.79 383.412C252.476 383.053 252.118 382.932 251.712 383.041C251.299 383.152 251.058 383.441 250.983 383.912C250.919 384.371 251.033 385.172 251.336 386.302ZM257.231 384.715C256.773 383.005 256.757 381.728 257.19 380.882C257.623 380.036 258.467 379.445 259.727 379.107C260.328 378.946 260.848 378.885 261.28 378.932C261.712 378.979 262.074 379.084 262.384 379.257C262.694 379.43 262.951 379.634 263.165 379.855C263.373 380.079 263.572 380.36 263.752 380.684C264.098 381.306 264.373 381.986 264.567 382.71C265.004 384.34 265.049 385.609 264.7 386.51C264.351 387.411 263.505 388.049 262.158 388.41C261.404 388.612 260.755 388.654 260.228 388.539C259.7 388.424 259.221 388.172 258.8 387.788C258.493 387.513 258.206 387.109 257.93 386.569C257.653 386.03 257.417 385.41 257.231 384.715ZM259.71 384.058C260.017 385.203 260.328 385.958 260.644 386.324C260.959 386.689 261.305 386.822 261.689 386.719C261.943 386.651 262.137 386.506 262.276 386.274C262.416 386.043 262.48 385.731 262.464 385.323C262.448 384.916 262.331 384.303 262.113 383.492C261.793 382.296 261.478 381.527 261.164 381.168C260.851 380.81 260.492 380.688 260.087 380.797C259.674 380.908 259.433 381.197 259.357 381.668C259.281 382.139 259.407 382.928 259.71 384.058ZM274.031 380.213C273.573 378.503 273.557 377.226 273.99 376.381C274.423 375.535 275.266 374.944 276.527 374.606C277.128 374.445 277.648 374.383 278.08 374.431C278.511 374.478 278.873 374.583 279.184 374.756C279.494 374.929 279.75 375.132 279.965 375.354C280.18 375.576 280.372 375.858 280.552 376.183C280.897 376.805 281.173 377.484 281.367 378.208C281.804 379.838 281.849 381.108 281.5 382.009C281.151 382.909 280.305 383.548 278.958 383.909C278.204 384.111 277.555 384.153 277.028 384.038C276.5 383.923 276.021 383.671 275.6 383.287C275.293 383.012 275.006 382.607 274.73 382.068C274.446 381.53 274.217 380.909 274.031 380.213ZM276.503 379.558C276.81 380.703 277.121 381.458 277.436 381.824C277.752 382.19 278.098 382.322 278.482 382.219C278.735 382.151 278.929 382.006 279.069 381.775C279.209 381.543 279.273 381.231 279.257 380.824C279.241 380.416 279.123 379.804 278.906 378.992C278.585 377.797 278.271 377.027 277.957 376.669C277.644 376.31 277.285 376.189 276.879 376.297C276.466 376.408 276.226 376.698 276.15 377.168C276.087 377.628 276.2 378.428 276.503 379.558ZM282.398 377.971C281.94 376.261 281.924 374.984 282.357 374.139C282.79 373.293 283.634 372.702 284.894 372.364C285.496 372.203 286.015 372.141 286.447 372.189C286.879 372.236 287.241 372.341 287.551 372.514C287.862 372.687 288.118 372.89 288.333 373.112C288.547 373.334 288.739 373.616 288.92 373.941C289.265 374.563 289.54 375.242 289.734 375.966C290.171 377.596 290.216 378.866 289.867 379.767C289.518 380.667 288.672 381.306 287.325 381.667C286.571 381.869 285.923 381.91 285.395 381.796C284.867 381.681 284.388 381.429 283.967 381.045C283.66 380.77 283.373 380.365 283.097 379.826C282.82 379.287 282.584 378.666 282.398 377.971ZM284.878 377.314C285.184 378.459 285.495 379.214 285.811 379.58C286.126 379.946 286.472 380.078 286.856 379.975C287.11 379.908 287.304 379.762 287.444 379.531C287.583 379.299 287.647 378.987 287.631 378.58C287.615 378.173 287.498 377.56 287.28 376.748C286.96 375.553 286.645 374.783 286.332 374.425C286.018 374.066 285.66 373.945 285.254 374.053C284.841 374.164 284.6 374.454 284.524 374.924C284.449 375.395 284.575 376.184 284.878 377.314ZM290.773 375.727C290.314 374.017 290.298 372.741 290.732 371.895C291.165 371.049 292.008 370.458 293.269 370.12C293.87 369.959 294.389 369.897 294.821 369.945C295.253 369.992 295.615 370.097 295.926 370.27C296.236 370.443 296.492 370.646 296.707 370.868C296.922 371.09 297.114 371.372 297.294 371.697C297.639 372.319 297.915 372.998 298.109 373.723C298.545 375.353 298.59 376.622 298.242 377.523C297.893 378.424 297.047 379.062 295.699 379.423C294.946 379.625 294.297 379.667 293.77 379.552C293.242 379.437 292.763 379.185 292.342 378.801C292.035 378.526 291.748 378.121 291.471 377.582C291.188 377.045 290.959 376.423 290.773 375.727ZM293.252 375.07C293.559 376.215 293.87 376.97 294.185 377.336C294.501 377.702 294.847 377.834 295.231 377.732C295.484 377.664 295.678 377.518 295.818 377.287C295.958 377.055 296.022 376.743 296.006 376.336C295.99 375.929 295.872 375.316 295.655 374.504C295.335 373.309 295.02 372.539 294.706 372.181C294.393 371.822 294.034 371.701 293.628 371.809C293.215 371.92 292.975 372.21 292.899 372.68C292.836 373.14 292.949 373.94 293.252 375.07ZM299.147 373.483C298.689 371.773 298.673 370.497 299.106 369.651C299.54 368.805 300.383 368.214 301.643 367.876C302.245 367.715 302.764 367.653 303.196 367.701C303.628 367.748 303.99 367.853 304.3 368.026C304.611 368.199 304.867 368.402 305.082 368.624C305.297 368.846 305.489 369.128 305.669 369.453C306.014 370.075 306.289 370.754 306.483 371.479C306.92 373.109 306.965 374.378 306.616 375.279C306.268 376.18 305.422 376.818 304.074 377.179C303.321 377.381 302.672 377.423 302.144 377.308C301.616 377.193 301.137 376.941 300.716 376.557C300.409 376.282 300.123 375.877 299.846 375.338C299.57 374.799 299.333 374.179 299.147 373.483ZM301.619 372.828C301.926 373.973 302.237 374.728 302.553 375.094C302.868 375.46 303.214 375.592 303.598 375.489C303.852 375.422 304.046 375.276 304.186 375.045C304.325 374.813 304.389 374.501 304.373 374.094C304.357 373.687 304.24 373.074 304.022 372.262C303.702 371.067 303.387 370.297 303.074 369.939C302.76 369.58 302.401 369.459 301.996 369.567C301.583 369.678 301.342 369.968 301.266 370.438C301.191 370.909 301.317 371.698 301.619 372.828ZM315.94 368.984C315.482 367.274 315.466 365.997 315.899 365.151C316.332 364.305 317.176 363.714 318.436 363.376C319.037 363.215 319.557 363.154 319.989 363.201C320.421 363.248 320.783 363.353 321.093 363.526C321.403 363.699 321.66 363.902 321.874 364.124C322.082 364.348 322.281 364.629 322.461 364.953C322.807 365.575 323.082 366.255 323.276 366.979C323.713 368.609 323.758 369.878 323.409 370.779C323.06 371.68 322.214 372.318 320.867 372.679C320.113 372.881 319.464 372.923 318.937 372.808C318.409 372.693 317.93 372.441 317.509 372.057C317.202 371.782 316.915 371.378 316.639 370.838C316.362 370.299 316.126 369.679 315.94 368.984ZM318.419 368.327C318.726 369.472 319.037 370.227 319.352 370.593C319.668 370.958 320.014 371.091 320.398 370.988C320.652 370.92 320.846 370.775 320.985 370.543C321.125 370.312 321.189 370 321.173 369.592C321.157 369.185 321.04 368.572 320.822 367.761C320.502 366.565 320.187 365.796 319.873 365.437C319.56 365.079 319.201 364.957 318.796 365.066C318.383 365.177 318.142 365.466 318.066 365.937C318.003 366.396 318.116 367.197 318.419 368.327ZM324.314 366.74C323.856 365.03 323.84 363.753 324.274 362.907C324.707 362.061 325.55 361.47 326.811 361.132C327.412 360.971 327.931 360.91 328.363 360.957C328.795 361.004 329.157 361.109 329.467 361.282C329.778 361.455 330.034 361.659 330.249 361.881C330.464 362.102 330.656 362.385 330.836 362.709C331.181 363.331 331.456 364.011 331.65 364.735C332.087 366.365 332.132 367.634 331.784 368.535C331.435 369.436 330.589 370.074 329.241 370.435C328.488 370.637 327.839 370.679 327.311 370.564C326.784 370.449 326.305 370.197 325.883 369.813C325.577 369.538 325.29 369.134 325.013 368.594C324.737 368.055 324.501 367.435 324.314 366.74ZM326.794 366.083C327.101 367.228 327.412 367.983 327.727 368.349C328.042 368.714 328.389 368.847 328.773 368.744C329.026 368.676 329.22 368.531 329.36 368.299C329.5 368.068 329.564 367.756 329.548 367.348C329.532 366.941 329.414 366.328 329.197 365.517C328.876 364.321 328.561 363.552 328.248 363.193C327.934 362.835 327.576 362.713 327.17 362.822C326.757 362.933 326.517 363.222 326.441 363.693C326.365 364.164 326.491 364.953 326.794 366.083ZM332.689 364.496C332.231 362.786 332.215 361.509 332.648 360.663C333.081 359.817 333.925 359.226 335.185 358.888C335.787 358.727 336.306 358.666 336.738 358.713C337.17 358.76 337.532 358.865 337.842 359.038C338.152 359.211 338.409 359.415 338.623 359.637C338.831 359.86 339.03 360.141 339.211 360.465C339.556 361.087 339.831 361.767 340.025 362.491C340.462 364.121 340.507 365.39 340.158 366.291C339.809 367.192 338.963 367.83 337.616 368.191C336.862 368.393 336.214 368.435 335.686 368.32C335.158 368.205 334.679 367.953 334.258 367.569C333.951 367.294 333.664 366.89 333.388 366.35C333.111 365.811 332.875 365.191 332.689 364.496ZM335.168 363.839C335.475 364.984 335.786 365.739 336.102 366.105C336.417 366.47 336.763 366.603 337.147 366.5C337.401 366.432 337.595 366.287 337.735 366.055C337.874 365.824 337.938 365.512 337.922 365.104C337.906 364.697 337.789 364.084 337.571 363.273C337.251 362.077 336.936 361.308 336.623 360.949C336.309 360.591 335.95 360.469 335.545 360.578C335.132 360.689 334.891 360.978 334.815 361.449C334.745 361.91 334.866 362.709 335.168 363.839ZM341.056 362.254C340.598 360.544 340.582 359.267 341.015 358.421C341.449 357.575 342.292 356.984 343.553 356.646C344.154 356.485 344.673 356.424 345.105 356.471C345.537 356.518 345.899 356.623 346.209 356.796C346.52 356.969 346.776 357.173 346.991 357.395C347.206 357.617 347.398 357.899 347.578 358.223C347.923 358.845 348.198 359.525 348.392 360.249C348.829 361.879 348.874 363.148 348.525 364.049C348.177 364.95 347.331 365.588 345.983 365.949C345.23 366.151 344.581 366.193 344.053 366.078C343.526 365.963 343.046 365.711 342.625 365.327C342.319 365.052 342.032 364.648 341.755 364.108C341.479 363.569 341.243 362.949 341.056 362.254ZM343.536 361.597C343.842 362.742 344.154 363.497 344.469 363.863C344.784 364.228 345.13 364.361 345.514 364.258C345.768 364.19 345.962 364.045 346.102 363.813C346.242 363.582 346.306 363.27 346.29 362.862C346.274 362.455 346.156 361.842 345.939 361.031C345.618 359.835 345.303 359.066 344.99 358.707C344.676 358.349 344.318 358.227 343.912 358.336C343.499 358.447 343.258 358.736 343.183 359.207C343.107 359.678 343.233 360.467 343.536 361.597Z" fill="#1C5FF4"/>
<path d="M187.69 401.228C187.232 399.519 187.216 398.242 187.649 397.396C188.083 396.55 188.926 395.959 190.186 395.621C190.788 395.46 191.307 395.398 191.739 395.446C192.171 395.493 192.533 395.598 192.843 395.771C193.154 395.944 193.41 396.147 193.625 396.369C193.832 396.593 194.032 396.874 194.212 397.198C194.557 397.82 194.832 398.499 195.026 399.224C195.463 400.854 195.508 402.123 195.159 403.024C194.811 403.925 193.965 404.563 192.617 404.924C191.864 405.126 191.215 405.168 190.687 405.053C190.159 404.938 189.68 404.686 189.259 404.302C188.952 404.027 188.666 403.622 188.389 403.083C188.113 402.544 187.876 401.924 187.69 401.228ZM190.17 400.572C190.476 401.716 190.787 402.471 191.103 402.837C191.418 403.203 191.764 403.336 192.148 403.233C192.402 403.165 192.596 403.02 192.736 402.788C192.876 402.556 192.939 402.244 192.924 401.837C192.908 401.43 192.79 400.817 192.573 400.005C192.252 398.81 191.937 398.04 191.624 397.682C191.31 397.323 190.952 397.202 190.546 397.311C190.133 397.421 189.892 397.711 189.817 398.182C189.753 398.641 189.867 399.441 190.17 400.572ZM196.065 398.984C195.607 397.275 195.591 395.998 196.024 395.152C196.457 394.306 197.3 393.715 198.561 393.377C199.162 393.216 199.682 393.154 200.114 393.202C200.546 393.249 200.908 393.354 201.218 393.527C201.528 393.7 201.785 393.903 201.999 394.125C202.207 394.349 202.406 394.63 202.586 394.954C202.932 395.576 203.207 396.255 203.401 396.98C203.838 398.61 203.883 399.879 203.534 400.78C203.185 401.681 202.339 402.319 200.992 402.68C200.238 402.882 199.589 402.924 199.062 402.809C198.534 402.694 198.055 402.442 197.634 402.058C197.327 401.783 197.04 401.378 196.764 400.839C196.487 400.3 196.251 399.68 196.065 398.984ZM198.544 398.328C198.851 399.472 199.162 400.227 199.477 400.593C199.793 400.959 200.139 401.092 200.523 400.989C200.776 400.921 200.97 400.776 201.11 400.544C201.25 400.312 201.314 400 201.298 399.593C201.282 399.186 201.164 398.573 200.947 397.761C200.627 396.566 200.312 395.796 199.998 395.438C199.685 395.079 199.326 394.958 198.921 395.067C198.508 395.177 198.267 395.467 198.191 395.938C198.121 396.399 198.241 397.197 198.544 398.328ZM204.439 396.74C203.981 395.031 203.965 393.754 204.398 392.908C204.832 392.062 205.675 391.471 206.936 391.133C207.537 390.972 208.056 390.911 208.488 390.958C208.92 391.005 209.282 391.11 209.592 391.283C209.903 391.456 210.159 391.659 210.374 391.881C210.581 392.105 210.781 392.386 210.961 392.71C211.306 393.332 211.581 394.011 211.775 394.736C212.212 396.366 212.257 397.635 211.909 398.536C211.56 399.437 210.714 400.075 209.366 400.436C208.613 400.638 207.964 400.68 207.436 400.565C206.909 400.45 206.43 400.198 206.008 399.814C205.702 399.539 205.415 399.134 205.138 398.595C204.862 398.056 204.626 397.436 204.439 396.74ZM206.912 396.086C207.218 397.23 207.529 397.985 207.845 398.351C208.16 398.717 208.506 398.85 208.89 398.747C209.144 398.679 209.338 398.534 209.478 398.302C209.617 398.07 209.681 397.758 209.665 397.351C209.649 396.944 209.532 396.331 209.314 395.519C208.994 394.324 208.679 393.554 208.366 393.196C208.052 392.837 207.694 392.716 207.288 392.825C206.875 392.935 206.634 393.225 206.558 393.696C206.495 394.155 206.609 394.955 206.912 396.086ZM212.807 394.498C212.349 392.789 212.332 391.512 212.766 390.666C213.199 389.82 214.042 389.229 215.303 388.891C215.904 388.73 216.424 388.668 216.855 388.716C217.287 388.763 217.649 388.868 217.96 389.041C218.27 389.214 218.526 389.417 218.741 389.639C218.949 389.863 219.148 390.144 219.328 390.468C219.673 391.09 219.949 391.769 220.143 392.494C220.58 394.124 220.625 395.393 220.276 396.294C219.927 397.195 219.081 397.833 217.734 398.194C216.98 398.396 216.331 398.438 215.804 398.323C215.276 398.208 214.797 397.956 214.376 397.572C214.069 397.297 213.782 396.892 213.505 396.353C213.229 395.814 212.993 395.194 212.807 394.498ZM215.286 393.842C215.593 394.986 215.904 395.741 216.219 396.107C216.535 396.473 216.881 396.606 217.265 396.503C217.518 396.435 217.712 396.29 217.852 396.058C217.992 395.826 218.056 395.514 218.04 395.107C218.024 394.7 217.906 394.087 217.689 393.275C217.369 392.08 217.054 391.31 216.74 390.952C216.427 390.593 216.068 390.472 215.662 390.581C215.25 390.691 215.009 390.981 214.933 391.452C214.87 391.911 214.983 392.711 215.286 393.842ZM229.606 389.997C229.148 388.287 229.132 387.01 229.566 386.164C229.999 385.318 230.842 384.727 232.103 384.39C232.704 384.228 233.223 384.167 233.655 384.214C234.087 384.262 234.449 384.366 234.76 384.54C235.07 384.713 235.326 384.916 235.541 385.138C235.749 385.362 235.948 385.642 236.128 385.967C236.473 386.588 236.749 387.268 236.943 387.992C237.379 389.622 237.424 390.891 237.076 391.792C236.727 392.693 235.881 393.331 234.533 393.692C233.78 393.894 233.131 393.936 232.603 393.821C232.076 393.707 231.597 393.454 231.175 393.07C230.869 392.795 230.582 392.391 230.305 391.852C230.029 391.312 229.793 390.692 229.606 389.997ZM232.086 389.34C232.393 390.485 232.704 391.24 233.019 391.606C233.335 391.972 233.681 392.104 234.065 392.001C234.318 391.933 234.512 391.788 234.652 391.556C234.792 391.325 234.856 391.013 234.84 390.605C234.824 390.198 234.706 389.585 234.489 388.774C234.169 387.579 233.854 386.809 233.54 386.45C233.227 386.092 232.868 385.97 232.462 386.079C232.049 386.19 231.809 386.479 231.733 386.95C231.67 387.41 231.783 388.21 232.086 389.34ZM237.981 387.753C237.523 386.043 237.507 384.766 237.94 383.92C238.374 383.074 239.217 382.483 240.477 382.146C241.079 381.985 241.598 381.923 242.03 381.97C242.462 382.018 242.824 382.123 243.134 382.296C243.445 382.469 243.701 382.672 243.916 382.894C244.123 383.118 244.323 383.398 244.503 383.723C244.848 384.344 245.123 385.024 245.317 385.748C245.754 387.378 245.799 388.647 245.45 389.548C245.102 390.449 244.255 391.087 242.908 391.449C242.155 391.65 241.506 391.692 240.978 391.577C240.45 391.463 239.971 391.21 239.55 390.826C239.243 390.551 238.956 390.147 238.68 389.608C238.403 389.068 238.167 388.448 237.981 387.753ZM240.461 387.096C240.767 388.241 241.078 388.996 241.394 389.362C241.709 389.728 242.055 389.86 242.439 389.757C242.693 389.689 242.887 389.544 243.027 389.313C243.167 389.081 243.23 388.769 243.214 388.362C243.198 387.954 243.081 387.341 242.863 386.53C242.543 385.335 242.228 384.565 241.915 384.206C241.601 383.848 241.243 383.726 240.837 383.835C240.424 383.946 240.183 384.235 240.107 384.706C240.037 385.168 240.158 385.966 240.461 387.096ZM246.348 385.511C245.89 383.801 245.874 382.524 246.308 381.678C246.741 380.832 247.584 380.241 248.845 379.904C249.446 379.742 249.965 379.681 250.397 379.728C250.829 379.776 251.191 379.881 251.502 380.054C251.812 380.227 252.068 380.43 252.283 380.652C252.491 380.876 252.69 381.156 252.87 381.481C253.215 382.102 253.49 382.782 253.685 383.506C254.121 385.136 254.166 386.405 253.818 387.306C253.469 388.207 252.623 388.845 251.275 389.207C250.522 389.408 249.873 389.45 249.345 389.335C248.818 389.221 248.339 388.968 247.917 388.584C247.611 388.309 247.324 387.905 247.047 387.366C246.771 386.826 246.535 386.206 246.348 385.511ZM248.828 384.854C249.135 385.999 249.446 386.754 249.761 387.12C250.077 387.486 250.423 387.618 250.807 387.515C251.06 387.447 251.254 387.302 251.394 387.071C251.534 386.839 251.598 386.527 251.582 386.12C251.566 385.712 251.448 385.099 251.231 384.288C250.91 383.093 250.596 382.323 250.282 381.964C249.969 381.606 249.61 381.484 249.204 381.593C248.791 381.704 248.551 381.993 248.475 382.464C248.412 382.924 248.525 383.724 248.828 384.854ZM254.723 383.267C254.265 381.557 254.249 380.28 254.682 379.434C255.115 378.588 255.959 377.997 257.219 377.66C257.821 377.499 258.34 377.437 258.772 377.484C259.204 377.532 259.566 377.637 259.876 377.81C260.187 377.983 260.443 378.186 260.658 378.408C260.872 378.63 261.064 378.912 261.245 379.237C261.59 379.858 261.865 380.538 262.059 381.262C262.496 382.892 262.541 384.161 262.192 385.062C261.843 385.963 260.997 386.602 259.65 386.963C258.896 387.164 258.248 387.206 257.72 387.091C257.192 386.977 256.713 386.725 256.292 386.34C255.985 386.065 255.698 385.661 255.422 385.122C255.145 384.582 254.909 383.962 254.723 383.267ZM257.203 382.61C257.509 383.755 257.82 384.51 258.136 384.876C258.451 385.242 258.797 385.374 259.181 385.271C259.435 385.203 259.629 385.058 259.769 384.827C259.908 384.595 259.972 384.283 259.956 383.876C259.94 383.468 259.823 382.855 259.605 382.044C259.285 380.849 258.97 380.079 258.657 379.72C258.343 379.362 257.985 379.24 257.579 379.349C257.166 379.46 256.925 379.749 256.849 380.22C256.786 380.68 256.9 381.48 257.203 382.61ZM271.523 378.765C271.065 377.056 271.049 375.779 271.482 374.933C271.915 374.087 272.759 373.496 274.019 373.158C274.62 372.997 275.14 372.936 275.572 372.983C276.004 373.03 276.366 373.135 276.676 373.308C276.986 373.481 277.243 373.684 277.457 373.906C277.672 374.128 277.864 374.411 278.044 374.735C278.39 375.357 278.665 376.036 278.859 376.761C279.296 378.391 279.341 379.66 278.992 380.561C278.643 381.462 277.797 382.1 276.45 382.461C275.696 382.663 275.048 382.705 274.52 382.59C273.992 382.475 273.513 382.223 273.092 381.839C272.785 381.564 272.498 381.159 272.222 380.62C271.938 380.083 271.709 379.461 271.523 378.765ZM274.002 378.109C274.309 379.253 274.62 380.009 274.936 380.374C275.251 380.74 275.597 380.873 275.981 380.77C276.235 380.702 276.429 380.557 276.568 380.325C276.708 380.093 276.772 379.781 276.756 379.374C276.74 378.967 276.623 378.354 276.405 377.542C276.085 376.347 275.77 375.577 275.456 375.219C275.143 374.86 274.784 374.739 274.379 374.848C273.966 374.958 273.725 375.248 273.649 375.719C273.579 376.18 273.7 376.979 274.002 378.109ZM279.897 376.521C279.439 374.812 279.423 373.535 279.857 372.689C280.29 371.843 281.133 371.252 282.394 370.914C282.995 370.753 283.514 370.692 283.946 370.739C284.378 370.786 284.74 370.891 285.051 371.064C285.361 371.237 285.617 371.44 285.832 371.662C286.047 371.884 286.239 372.167 286.419 372.491C286.764 373.113 287.039 373.792 287.234 374.517C287.67 376.147 287.715 377.416 287.367 378.317C287.018 379.218 286.172 379.856 284.824 380.217C284.071 380.419 283.422 380.461 282.894 380.346C282.367 380.231 281.888 379.979 281.466 379.595C281.16 379.32 280.873 378.915 280.596 378.376C280.32 377.837 280.084 377.217 279.897 376.521ZM282.37 375.867C282.676 377.011 282.987 377.767 283.303 378.132C283.618 378.498 283.964 378.631 284.348 378.528C284.602 378.46 284.796 378.315 284.936 378.083C285.076 377.851 285.139 377.539 285.124 377.132C285.108 376.725 284.99 376.112 284.773 375.3C284.452 374.105 284.137 373.335 283.824 372.977C283.51 372.618 283.152 372.497 282.746 372.606C282.333 372.716 282.092 373.006 282.017 373.477C281.941 373.947 282.067 374.737 282.37 375.867ZM288.265 374.279C287.807 372.57 287.791 371.293 288.224 370.447C288.657 369.601 289.501 369.01 290.761 368.672C291.362 368.511 291.882 368.45 292.314 368.497C292.746 368.544 293.108 368.649 293.418 368.822C293.728 368.995 293.985 369.198 294.199 369.42C294.407 369.644 294.606 369.925 294.786 370.249C295.132 370.871 295.407 371.55 295.601 372.275C296.038 373.905 296.083 375.174 295.734 376.075C295.385 376.976 294.539 377.614 293.192 377.975C292.438 378.177 291.789 378.219 291.262 378.104C290.734 377.989 290.255 377.737 289.834 377.353C289.527 377.078 289.24 376.673 288.964 376.134C288.687 375.595 288.451 374.975 288.265 374.279ZM290.744 373.623C291.051 374.767 291.362 375.523 291.677 375.888C291.993 376.254 292.339 376.387 292.723 376.284C292.977 376.216 293.171 376.071 293.31 375.839C293.45 375.607 293.514 375.295 293.498 374.888C293.482 374.481 293.365 373.868 293.147 373.056C292.827 371.861 292.512 371.091 292.198 370.733C291.885 370.374 291.526 370.253 291.121 370.362C290.708 370.472 290.467 370.762 290.391 371.233C290.328 371.692 290.441 372.493 290.744 373.623ZM296.639 372.035C296.181 370.326 296.165 369.049 296.599 368.203C297.032 367.357 297.875 366.766 299.136 366.428C299.737 366.267 300.256 366.206 300.688 366.253C301.12 366.3 301.482 366.405 301.792 366.578C302.103 366.751 302.359 366.954 302.574 367.176C302.789 367.398 302.981 367.681 303.161 368.005C303.506 368.627 303.781 369.306 303.975 370.031C304.412 371.661 304.457 372.93 304.109 373.831C303.76 374.732 302.914 375.37 301.566 375.731C300.813 375.933 300.164 375.975 299.636 375.86C299.109 375.745 298.63 375.493 298.208 375.109C297.902 374.834 297.615 374.429 297.338 373.89C297.062 373.351 296.826 372.731 296.639 372.035ZM299.119 371.379C299.426 372.523 299.737 373.279 300.052 373.644C300.367 374.01 300.714 374.143 301.098 374.04C301.351 373.972 301.545 373.827 301.685 373.595C301.825 373.364 301.889 373.051 301.873 372.644C301.857 372.237 301.739 371.624 301.522 370.813C301.201 369.617 300.886 368.848 300.573 368.489C300.259 368.13 299.901 368.009 299.495 368.118C299.082 368.228 298.842 368.518 298.766 368.989C298.69 369.459 298.816 370.249 299.119 371.379ZM313.439 367.534C312.981 365.824 312.965 364.547 313.398 363.701C313.832 362.855 314.675 362.264 315.936 361.927C316.537 361.766 317.056 361.704 317.488 361.751C317.92 361.799 318.282 361.904 318.592 362.077C318.903 362.25 319.159 362.453 319.374 362.675C319.581 362.899 319.781 363.179 319.961 363.504C320.306 364.125 320.581 364.805 320.775 365.529C321.212 367.159 321.257 368.428 320.908 369.329C320.56 370.23 319.714 370.869 318.366 371.23C317.613 371.431 316.964 371.473 316.436 371.358C315.908 371.244 315.429 370.992 315.008 370.607C314.702 370.332 314.415 369.928 314.138 369.389C313.862 368.849 313.626 368.229 313.439 367.534ZM315.911 366.879C316.218 368.024 316.529 368.779 316.845 369.145C317.16 369.511 317.506 369.643 317.89 369.54C318.144 369.472 318.338 369.327 318.478 369.096C318.617 368.864 318.681 368.552 318.665 368.145C318.649 367.737 318.532 367.124 318.314 366.313C317.994 365.118 317.679 364.348 317.366 363.989C317.052 363.631 316.693 363.509 316.288 363.618C315.875 363.729 315.634 364.018 315.558 364.489C315.495 364.949 315.609 365.749 315.911 366.879ZM321.807 365.292C321.348 363.582 321.332 362.305 321.766 361.459C322.199 360.613 323.042 360.022 324.303 359.685C324.904 359.524 325.423 359.462 325.855 359.509C326.287 359.557 326.649 359.662 326.96 359.835C327.27 360.008 327.526 360.211 327.741 360.433C327.956 360.655 328.148 360.937 328.328 361.262C328.673 361.883 328.949 362.563 329.143 363.287C329.579 364.917 329.624 366.186 329.276 367.087C328.927 367.988 328.081 368.627 326.733 368.988C325.98 369.189 325.331 369.231 324.804 369.116C324.276 369.002 323.797 368.75 323.376 368.365C323.069 368.09 322.782 367.686 322.505 367.147C322.229 366.607 321.993 365.987 321.807 365.292ZM324.286 364.635C324.593 365.78 324.904 366.535 325.219 366.901C325.535 367.267 325.881 367.399 326.265 367.296C326.518 367.228 326.712 367.083 326.852 366.852C326.992 366.62 327.056 366.308 327.04 365.901C327.024 365.493 326.906 364.88 326.689 364.069C326.369 362.874 326.054 362.104 325.74 361.745C325.427 361.387 325.068 361.265 324.662 361.374C324.249 361.485 324.009 361.775 323.933 362.245C323.857 362.716 323.983 363.505 324.286 364.635ZM330.181 363.048C329.723 361.338 329.707 360.061 330.14 359.215C330.574 358.369 331.417 357.778 332.677 357.441C333.279 357.28 333.798 357.218 334.23 357.265C334.662 357.313 335.024 357.418 335.334 357.591C335.645 357.764 335.901 357.967 336.116 358.189C336.323 358.413 336.523 358.693 336.703 359.018C337.048 359.639 337.323 360.319 337.517 361.043C337.954 362.673 337.999 363.942 337.65 364.843C337.302 365.744 336.455 366.383 335.108 366.744C334.355 366.945 333.706 366.987 333.178 366.872C332.65 366.758 332.171 366.506 331.75 366.122C331.443 365.847 331.156 365.442 330.88 364.903C330.603 364.363 330.367 363.743 330.181 363.048ZM332.661 362.391C332.967 363.536 333.278 364.291 333.594 364.657C333.909 365.023 334.255 365.155 334.639 365.052C334.893 364.984 335.087 364.839 335.227 364.608C335.367 364.376 335.43 364.064 335.414 363.657C335.399 363.249 335.281 362.636 335.063 361.825C334.743 360.63 334.428 359.86 334.115 359.501C333.801 359.143 333.443 359.022 333.037 359.13C332.624 359.241 332.383 359.531 332.308 360.001C332.237 360.463 332.358 361.261 332.661 362.391ZM338.556 360.804C338.098 359.094 338.082 357.817 338.515 356.971C338.948 356.125 339.791 355.534 341.052 355.197C341.653 355.036 342.173 354.974 342.605 355.021C343.036 355.069 343.398 355.174 343.709 355.347C344.019 355.52 344.276 355.723 344.49 355.945C344.705 356.167 344.897 356.449 345.077 356.774C345.423 357.395 345.698 358.075 345.892 358.799C346.329 360.429 346.374 361.698 346.025 362.599C345.676 363.5 344.83 364.139 343.483 364.5C342.729 364.702 342.08 364.743 341.553 364.629C341.025 364.514 340.546 364.262 340.125 363.878C339.818 363.603 339.531 363.198 339.255 362.659C338.978 362.119 338.742 361.499 338.556 360.804ZM341.028 360.149C341.335 361.294 341.646 362.049 341.961 362.415C342.277 362.781 342.623 362.913 343.007 362.81C343.26 362.742 343.454 362.597 343.594 362.366C343.734 362.134 343.798 361.822 343.782 361.415C343.766 361.007 343.648 360.394 343.431 359.583C343.111 358.388 342.796 357.618 342.482 357.259C342.169 356.901 341.81 356.78 341.404 356.888C340.991 356.999 340.751 357.289 340.675 357.759C340.599 358.23 340.725 359.019 341.028 360.149Z" fill="#E8E8EA"/>
<path d="M230.542 305.974L168.45 322.612C167.508 322.864 166.951 323.829 167.203 324.77L169.342 332.754C169.595 333.695 170.559 334.252 171.501 334L233.593 317.362C234.535 317.11 235.092 316.146 234.839 315.204L232.7 307.22C232.448 306.279 231.483 305.722 230.542 305.974Z" fill="#1C5FF4"/>
<path d="M216.534 377.085L185.615 385.37C184.492 385.671 183.829 386.819 184.13 387.942C184.431 389.065 185.579 389.728 186.702 389.427L217.614 381.144C218.737 380.843 219.4 379.695 219.099 378.572C218.807 377.454 217.65 376.786 216.534 377.085ZM261.689 364.986L230.777 373.269C229.654 373.57 228.991 374.718 229.292 375.841C229.593 376.964 230.741 377.627 231.864 377.326L262.776 369.043C263.899 368.742 264.562 367.594 264.261 366.471C263.962 365.355 262.812 364.685 261.689 364.986Z" fill="#E8E8EA"/>
<path d="M323.458 285.363C325.504 287.377 326.911 290.51 327.877 294.118C329.842 301.449 329.284 307.973 321.953 309.938L297.944 316.371C296.083 316.87 294.458 316.893 293.028 316.539C295.137 318.614 297.932 319.511 301.648 318.515L325.656 312.082C332.988 310.118 333.546 303.594 331.581 296.262C330.116 290.793 327.655 286.421 323.458 285.363Z" fill="#1C5FF4"/>
<path d="M297.939 316.38L321.947 309.947C329.279 307.983 329.836 301.459 327.872 294.127C325.908 286.796 322.162 281.425 314.831 283.389L290.823 289.822C283.491 291.786 282.934 298.311 284.898 305.642C286.862 312.973 290.608 318.345 297.939 316.38Z" fill="#FF9C00"/>
<path d="M489.964 175.953L404.069 219.405C401.238 220.839 400.099 224.296 401.535 227.134L464.891 352.366C466.325 355.196 469.783 356.335 472.62 354.899L558.516 311.447C561.346 310.013 562.485 306.556 561.049 303.718L497.695 178.493C496.259 175.656 492.804 174.524 489.964 175.953Z" fill="#EEEEEE"/>
<path d="M427.483 221.827L434.315 218.374C435.67 217.692 436.704 217.237 437.428 217.012C438.152 216.787 438.864 216.72 439.564 216.812C440.272 216.902 440.946 217.156 441.602 217.578C442.25 217.995 442.761 218.572 443.138 219.31C443.546 220.109 443.695 220.954 443.606 221.84C443.51 222.727 443.179 223.522 442.616 224.232C443.813 224.005 444.869 224.118 445.804 224.566C446.732 225.016 447.445 225.734 447.949 226.717C448.344 227.496 448.547 228.342 448.552 229.257C448.556 230.172 448.361 231.009 447.959 231.769C447.555 232.522 446.919 233.189 446.051 233.748C445.51 234.102 444.139 234.842 441.95 235.972L436.13 238.914L427.483 221.827ZM432.367 222.926L434.365 226.878L436.629 225.736C437.977 225.056 438.797 224.611 439.108 224.411C439.662 224.046 440.026 223.606 440.192 223.096C440.358 222.586 440.302 222.057 440.022 221.503C439.756 220.977 439.388 220.617 438.936 220.436C438.476 220.256 437.945 220.274 437.336 220.492C436.976 220.627 435.978 221.104 434.358 221.926L432.367 222.926ZM435.81 229.721L438.121 234.289L441.314 232.672C442.559 232.043 443.328 231.612 443.628 231.369C444.093 231.019 444.395 230.581 444.534 230.055C444.672 229.528 444.592 228.967 444.281 228.36C444.02 227.847 443.679 227.473 443.246 227.247C442.813 227.022 442.324 226.935 441.77 227.014C441.216 227.092 440.159 227.523 438.586 228.317L435.81 229.721ZM453.244 230.252L444.597 213.165L448.05 211.417L456.697 228.504L453.244 230.252ZM460.076 226.799L451.504 209.847L454.956 208.099L462.074 222.171L470.655 217.83L472.11 220.709L460.076 226.799ZM474.66 219.42L466.088 202.468L469.541 200.72L476.658 214.793L485.24 210.451L486.694 213.33L474.66 219.42Z" fill="#4979FF"/>
<path d="M523.62 259.099L451.203 295.736L452.778 298.848L525.195 262.211L523.62 259.099Z" fill="#5C637F"/>
<path d="M494.381 258.281L444.912 283.309L446.486 286.421L495.955 261.393L494.381 258.281Z" fill="#5C637F"/>
<path d="M503.358 238.127L438.624 270.877L440.198 273.989L504.933 241.239L503.358 238.127Z" fill="#5C637F"/>
<path d="M504.755 221.814L432.338 258.451L433.913 261.563L506.33 224.926L504.755 221.814Z" fill="#5C637F"/>
<path d="M510.645 296.89L463.826 320.577L465.4 323.689L512.219 300.002L510.645 296.89Z" fill="#5C637F"/>
<path d="M459.112 311.264L517.149 281.899L515.578 278.788L457.491 308.173C457.635 308.39 457.772 308.61 457.89 308.85L459.112 311.264Z" fill="#5C637F"/>
<path d="M528.149 303.646L470.113 333.007L471.688 336.119L529.723 306.758L528.149 303.646Z" fill="#5C637F"/>
<path d="M590.25 353.676C612.664 341.346 620.839 313.18 608.509 290.766C596.179 268.352 568.013 260.177 545.599 272.507C523.185 284.837 515.01 313.003 527.34 335.417C539.67 357.831 567.835 366.006 590.25 353.676Z" fill="#FF9C00"/>
<path d="M585.21 344.516C602.565 334.969 608.895 313.161 599.348 295.806C589.801 278.451 567.993 272.121 550.638 281.668C533.282 291.215 526.953 313.023 536.5 330.378C546.047 347.733 567.855 354.063 585.21 344.516Z" fill="#FEC200"/>
<path d="M581.805 298.537L580.85 294.973C579.523 290.017 574.415 287.069 569.46 288.397L564.317 289.775L563.039 285.008L558.128 286.324L559.405 291.091L554.269 292.467C549.313 293.795 546.365 298.902 547.693 303.857L549.601 310.979C550.928 315.934 556.036 318.882 560.991 317.555L576.182 313.484C578.428 312.882 580.743 314.219 581.345 316.464L583.253 323.586C583.855 325.832 582.518 328.146 580.272 328.748L565.081 332.819C562.835 333.42 560.52 332.084 559.919 329.838L558.964 326.274L554.052 327.59L555.007 331.154C556.335 336.109 561.442 339.058 566.397 337.73L571.533 336.354L572.811 341.121L577.722 339.805L576.445 335.038L581.589 333.66C586.544 332.332 589.492 327.225 588.165 322.27L586.257 315.148C584.929 310.193 579.822 307.245 574.866 308.572L559.675 312.643C557.429 313.245 555.114 311.908 554.512 309.662L552.604 302.541C552.003 300.295 553.339 297.981 555.585 297.379L570.776 293.308C573.022 292.707 575.337 294.043 575.939 296.289L576.894 299.853L581.805 298.537Z" fill="#E8E8EA"/>
<path d="M154.206 265.772L186.046 284.02C187.459 284.829 189.261 284.168 189.823 282.643L212.099 221.584C213.129 218.762 209.054 217.027 207.733 219.718L184.029 268.061C183.442 269.258 182.056 269.824 180.804 269.383L156.461 260.858C153.337 259.777 151.346 264.139 154.206 265.772Z" fill="#8CC540"/>
<path d="M365.164 362.075C365.28 362.51 365.366 362.945 365.442 363.375L373.426 361.236L370.207 349.225L362.282 351.348L365.157 362.077L365.164 362.075ZM353.306 382.614L311.563 393.799L313.687 401.725L363.348 388.418C372.295 386.021 377.603 376.826 375.206 367.879L374.922 366.822L365.461 369.357C364.357 375.553 359.797 380.875 353.306 382.614Z" fill="#F9C39B"/>
<path d="M360.792 314.058L352.867 316.182L356.085 328.193L364.011 326.07L360.792 314.058Z" fill="#F9C39B"/>
<path d="M356.081 296.476L348.156 298.6L351.374 310.611L359.3 308.487L356.081 296.476Z" fill="#F9C39B"/>
<path d="M351.368 278.887L343.442 281.01L346.661 293.021L354.586 290.898L351.368 278.887Z" fill="#F9C39B"/>
<path d="M337.253 263.909C338.762 265.718 339.919 267.862 340.569 270.288L341.95 275.439L349.621 273.384C347.284 268.311 342.593 264.831 337.253 263.909Z" fill="#F9C39B"/>
<path d="M365.504 331.641L357.578 333.764L360.797 345.775L368.722 343.652L365.504 331.641Z" fill="#F9C39B"/>
<path d="M350.617 276.083C350.362 275.134 350.029 274.237 349.627 273.374L341.955 275.43L343.45 281.008L351.375 278.885L350.624 276.081L350.617 276.083Z" fill="#E2DCDC"/>
<path d="M354.587 290.898L346.661 293.021L348.156 298.6L356.081 296.476L354.587 290.898Z" fill="#E2DCDC"/>
<path d="M359.297 308.48L351.372 310.604L352.867 316.182L360.792 314.058L359.297 308.48Z" fill="#E2DCDC"/>
<path d="M364.01 326.07L356.085 328.193L357.58 333.771L365.505 331.648L364.01 326.07Z" fill="#E2DCDC"/>
<path d="M368.722 343.652L360.796 345.776L362.291 351.354L370.216 349.23L368.722 343.652Z" fill="#E2DCDC"/>
<path d="M365.466 369.348L374.928 366.812L373.433 361.234L365.45 363.373C365.822 365.401 365.81 367.415 365.466 369.348Z" fill="#E2DCDC"/>
<path d="M374.465 424.782C382.378 430.784 388.446 439.345 391.216 449.683C392.118 453.051 392.612 456.429 392.754 459.768L401.715 457.367C401.577 456.737 401.432 456.108 401.263 455.477C397.412 441.104 387.198 430.137 374.465 424.782Z" fill="#F9CFAA"/>
<path d="M368.791 502.275C391.205 489.945 399.38 461.779 387.05 439.365C374.72 416.95 346.554 408.775 324.14 421.105C301.726 433.435 293.551 461.601 305.881 484.015C318.211 506.43 346.376 514.605 368.791 502.275Z" fill="#FF9C00"/>
<path d="M363.751 493.114C381.106 483.567 387.436 461.759 377.889 444.404C368.342 427.049 346.534 420.719 329.179 430.266C311.823 439.813 305.494 461.621 315.041 478.977C324.588 496.332 346.396 502.661 363.751 493.114Z" fill="#FEC200"/>
<path d="M360.353 447.137L359.398 443.572C358.07 438.617 352.963 435.668 348.008 436.996L342.864 438.374L341.587 433.608L336.675 434.924L337.952 439.69L332.816 441.067C327.861 442.394 324.912 447.502 326.24 452.457L328.148 459.578C329.476 464.533 334.583 467.482 339.538 466.154L354.73 462.084C356.976 461.482 359.29 462.818 359.892 465.064L361.8 472.185C362.402 474.431 361.066 476.746 358.82 477.348L343.628 481.418C341.382 482.02 339.068 480.684 338.466 478.438L337.511 474.874L332.599 476.19L333.554 479.754C334.882 484.709 339.989 487.658 344.944 486.33L350.081 484.954L351.358 489.721L356.27 488.404L354.992 483.638L360.136 482.259C365.091 480.932 368.04 475.825 366.712 470.869L364.804 463.748C363.476 458.793 358.369 455.844 353.414 457.172L338.222 461.243C335.976 461.844 333.662 460.508 333.06 458.262L331.152 451.141C330.55 448.895 331.886 446.58 334.132 445.978L349.324 441.908C351.57 441.306 353.884 442.643 354.486 444.888L355.441 448.453L360.353 447.137Z" fill="#E8E8EA"/>
</g>
<defs>
<clipPath id="clip0_2258_19480">
<rect width="600" height="450" fill="white" transform="translate(0 156) rotate(-15)"/>
</clipPath>
</defs>
</svg>
