<svg width="760" height="344" viewBox="0 0 760 344" fill="none" xmlns="http://www.w3.org/2000/svg">
<rect width="760" height="344" rx="8" fill="white"/>
<path d="M24.624 33.568C24.624 31.52 26.32 30.096 28.784 30.096C31.152 30.096 32.656 31.408 32.72 33.52H30.672C30.624 32.512 29.904 31.92 28.752 31.92C27.488 31.92 26.672 32.528 26.672 33.504C26.672 34.336 27.12 34.8 28.096 35.024L29.936 35.424C31.936 35.856 32.912 36.88 32.912 38.624C32.912 40.8 31.216 42.208 28.64 42.208C26.144 42.208 24.512 40.88 24.464 38.784H26.512C26.528 39.776 27.328 40.368 28.64 40.368C30 40.368 30.864 39.776 30.864 38.8C30.864 38.016 30.464 37.552 29.504 37.344L27.648 36.928C25.664 36.496 24.624 35.36 24.624 33.568ZM36.8288 42.208C35.1488 42.208 34.1248 41.232 34.1248 39.744C34.1248 38.288 35.1808 37.376 37.0528 37.232L39.4208 37.056V36.88C39.4208 35.808 38.7808 35.376 37.7888 35.376C36.6368 35.376 35.9968 35.856 35.9968 36.688H34.3328C34.3328 34.976 35.7408 33.856 37.8848 33.856C40.0128 33.856 41.3248 35.008 41.3248 37.2V42H39.6128L39.4688 40.832C39.1328 41.648 38.0608 42.208 36.8288 42.208ZM37.4688 40.736C38.6688 40.736 39.4368 40.016 39.4368 38.8V38.384L37.7888 38.512C36.5728 38.624 36.1088 39.024 36.1088 39.664C36.1088 40.384 36.5888 40.736 37.4688 40.736ZM45.2104 42H43.2744V30.096H45.2104V42ZM50.794 42.208C48.442 42.208 46.794 40.496 46.794 38.048C46.794 35.568 48.41 33.856 50.73 33.856C53.098 33.856 54.602 35.44 54.602 37.904V38.496L48.65 38.512C48.794 39.904 49.53 40.608 50.826 40.608C51.898 40.608 52.602 40.192 52.826 39.44H54.634C54.298 41.168 52.858 42.208 50.794 42.208ZM50.746 35.456C49.594 35.456 48.89 36.08 48.698 37.264H52.666C52.666 36.176 51.914 35.456 50.746 35.456ZM55.5563 39.6H57.4123C57.4283 40.288 57.9403 40.72 58.8363 40.72C59.7483 40.72 60.2443 40.352 60.2443 39.776C60.2443 39.376 60.0363 39.088 59.3323 38.928L57.9083 38.592C56.4843 38.272 55.7963 37.6 55.7963 36.336C55.7963 34.784 57.1083 33.856 58.9323 33.856C60.7083 33.856 61.9083 34.88 61.9243 36.416H60.0683C60.0523 35.744 59.6043 35.312 58.8523 35.312C58.0843 35.312 57.6363 35.664 57.6363 36.256C57.6363 36.704 57.9883 36.992 58.6603 37.152L60.0843 37.488C61.4123 37.792 62.0843 38.4 62.0843 39.616C62.0843 41.216 60.7243 42.208 58.7723 42.208C56.8043 42.208 55.5563 41.152 55.5563 39.6ZM67.147 32.192V30.304H76.043V32.192H72.619V42H70.571V32.192H67.147ZM81.3274 34.064V35.872H80.6074C79.1994 35.872 78.3194 36.624 78.3194 38.16V42H76.3674V34.112H78.2074L78.3194 35.264C78.6554 34.48 79.4074 33.952 80.4634 33.952C80.7354 33.952 81.0074 33.984 81.3274 34.064ZM85.919 42.208C83.567 42.208 81.919 40.496 81.919 38.048C81.919 35.568 83.535 33.856 85.855 33.856C88.223 33.856 89.727 35.44 89.727 37.904V38.496L83.775 38.512C83.919 39.904 84.655 40.608 85.951 40.608C87.023 40.608 87.727 40.192 87.951 39.44H89.759C89.423 41.168 87.983 42.208 85.919 42.208ZM85.871 35.456C84.719 35.456 84.015 36.08 83.823 37.264H87.791C87.791 36.176 87.039 35.456 85.871 35.456ZM93.2413 42H91.2893V34.096H93.0973L93.2573 35.12C93.7533 34.32 94.7133 33.856 95.7853 33.856C97.7693 33.856 98.7933 35.088 98.7933 37.136V42H96.8413V37.6C96.8413 36.272 96.1853 35.632 95.1773 35.632C93.9773 35.632 93.2413 36.464 93.2413 37.744V42ZM103.959 42.208C101.671 42.208 100.247 40.528 100.247 38.08C100.247 35.616 101.687 33.856 104.071 33.856C105.175 33.856 106.151 34.32 106.647 35.104V30.096H108.583V42H106.791L106.663 40.768C106.183 41.68 105.159 42.208 103.959 42.208ZM104.391 40.416C105.751 40.416 106.631 39.44 106.631 38.016C106.631 36.592 105.751 35.6 104.391 35.6C103.031 35.6 102.199 36.608 102.199 38.016C102.199 39.424 103.031 40.416 104.391 40.416Z" fill="#1E1E1E"/>
<rect width="712" height="16" transform="translate(24 304)" fill="white"/>
<path d="M24.24 314.588V314.156H25.38V314.588C25.38 315.44 25.848 316.052 26.808 316.052C27.792 316.052 28.224 315.452 28.224 314.552V308.324H29.4V314.6C29.4 316.16 28.356 317.144 26.808 317.144C25.152 317.144 24.24 316.088 24.24 314.588ZM32.8836 317.144C31.6236 317.144 30.8796 316.436 30.8796 315.368C30.8796 314.288 31.6836 313.616 33.0636 313.508L34.9116 313.364V313.196C34.9116 312.212 34.3236 311.864 33.5316 311.864C32.5836 311.864 32.0436 312.284 32.0436 312.992H31.0596C31.0596 311.768 32.0676 310.964 33.5796 310.964C35.0316 310.964 36.0156 311.732 36.0156 313.316V317H35.0556L34.9356 316.052C34.6356 316.724 33.8316 317.144 32.8836 317.144ZM33.2076 316.268C34.2756 316.268 34.9236 315.572 34.9236 314.468V314.156L33.4236 314.276C32.4276 314.372 32.0196 314.756 32.0196 315.332C32.0196 315.956 32.4756 316.268 33.2076 316.268ZM38.7057 317H37.5777V311.132H38.5977L38.7177 312.032C39.0897 311.36 39.8337 310.964 40.6617 310.964C42.2097 310.964 42.9177 311.912 42.9177 313.412V317H41.7897V313.664C41.7897 312.476 41.2377 311.996 40.3737 311.996C39.3177 311.996 38.7057 312.752 38.7057 313.892V317Z" fill="black"/>
<path d="M91.6829 313.316H88.2749V317H87.0989V308.324H92.3309V309.404H88.2749V312.248H91.6829V313.316ZM95.6381 317.144C93.9101 317.144 92.7221 315.896 92.7221 314.072C92.7221 312.236 93.8861 310.964 95.5901 310.964C97.2581 310.964 98.3501 312.116 98.3501 313.856V314.276L93.8141 314.288C93.8981 315.524 94.5461 316.208 95.6621 316.208C96.5381 316.208 97.1141 315.848 97.3061 315.176H98.3621C98.0741 316.436 97.0901 317.144 95.6381 317.144ZM95.5901 311.912C94.6061 311.912 93.9821 312.5 93.8381 313.532H97.2221C97.2221 312.56 96.5861 311.912 95.5901 311.912ZM100.63 317H99.61V308.168H100.738V312.14C101.122 311.372 101.914 310.964 102.874 310.964C104.554 310.964 105.562 312.284 105.562 314.096C105.562 315.872 104.506 317.144 102.802 317.144C101.878 317.144 101.098 316.736 100.714 315.932L100.63 317ZM100.75 314.048C100.75 315.272 101.446 316.124 102.598 316.124C103.75 316.124 104.434 315.26 104.434 314.048C104.434 312.848 103.75 311.984 102.598 311.984C101.446 311.984 100.75 312.848 100.75 314.048Z" fill="black"/>
<path d="M150.342 317H149.19V308.324H150.342L153.33 315.62L156.318 308.324H157.494V317H156.342V313.568C156.342 311.948 156.354 311.36 156.414 310.748L153.882 317H152.778L150.258 310.772C150.318 311.192 150.342 312.08 150.342 313.292V317ZM161.038 317.144C159.778 317.144 159.034 316.436 159.034 315.368C159.034 314.288 159.838 313.616 161.218 313.508L163.066 313.364V313.196C163.066 312.212 162.478 311.864 161.686 311.864C160.738 311.864 160.198 312.284 160.198 312.992H159.214C159.214 311.768 160.222 310.964 161.734 310.964C163.186 310.964 164.17 311.732 164.17 313.316V317H163.21L163.09 316.052C162.79 316.724 161.986 317.144 161.038 317.144ZM161.362 316.268C162.43 316.268 163.078 315.572 163.078 314.468V314.156L161.578 314.276C160.582 314.372 160.174 314.756 160.174 315.332C160.174 315.956 160.63 316.268 161.362 316.268ZM169.092 311.084V312.116H168.588C167.52 312.116 166.86 312.764 166.86 313.892V317H165.732V311.144H166.788L166.86 312.032C167.1 311.42 167.688 311.012 168.492 311.012C168.696 311.012 168.864 311.036 169.092 311.084Z" fill="black"/>
<path d="M213.641 317H212.417L215.585 308.324H216.893L220.073 317H218.837L218.057 314.84H214.409L213.641 317ZM216.089 310.196L214.769 313.82H217.709L216.377 310.196C216.317 310.028 216.257 309.824 216.233 309.692C216.209 309.812 216.149 310.016 216.089 310.196ZM221.034 319.628V311.132H222.054L222.138 312.188C222.534 311.384 223.326 310.964 224.262 310.964C225.942 310.964 226.986 312.224 226.986 314.024C226.986 315.812 226.002 317.156 224.262 317.156C223.326 317.156 222.546 316.76 222.162 316.04V319.628H221.034ZM222.174 314.072C222.174 315.272 222.87 316.136 224.022 316.136C225.174 316.136 225.858 315.272 225.858 314.072C225.858 312.86 225.174 311.996 224.022 311.996C222.87 311.996 222.174 312.848 222.174 314.072ZM231.589 311.084V312.116H231.085C230.017 312.116 229.357 312.764 229.357 313.892V317H228.229V311.144H229.285L229.357 312.032C229.597 311.42 230.185 311.012 230.989 311.012C231.193 311.012 231.361 311.036 231.589 311.084Z" fill="black"/>
<path d="M276.524 317H275.372V308.324H276.524L279.512 315.62L282.5 308.324H283.676V317H282.524V313.568C282.524 311.948 282.536 311.36 282.596 310.748L280.064 317H278.96L276.44 310.772C276.5 311.192 276.524 312.08 276.524 313.292V317ZM287.22 317.144C285.96 317.144 285.216 316.436 285.216 315.368C285.216 314.288 286.02 313.616 287.4 313.508L289.248 313.364V313.196C289.248 312.212 288.66 311.864 287.868 311.864C286.92 311.864 286.38 312.284 286.38 312.992H285.396C285.396 311.768 286.404 310.964 287.916 310.964C289.368 310.964 290.352 311.732 290.352 313.316V317H289.392L289.272 316.052C288.972 316.724 288.168 317.144 287.22 317.144ZM287.544 316.268C288.612 316.268 289.26 315.572 289.26 314.468V314.156L287.76 314.276C286.764 314.372 286.356 314.756 286.356 315.332C286.356 315.956 286.812 316.268 287.544 316.268ZM291.209 319.628V318.704H291.965C292.505 318.704 292.937 318.62 293.213 317.876L293.417 317.312L291.053 311.132H292.241L293.945 315.86L295.685 311.132H296.849L294.077 318.32C293.681 319.328 293.093 319.748 292.193 319.748C291.821 319.748 291.509 319.7 291.209 319.628Z" fill="black"/>
<path d="M339.695 314.588V314.156H340.835V314.588C340.835 315.44 341.303 316.052 342.263 316.052C343.247 316.052 343.679 315.452 343.679 314.552V308.324H344.855V314.6C344.855 316.16 343.811 317.144 342.263 317.144C340.607 317.144 339.695 316.088 339.695 314.588ZM350.678 311.132H351.794V317H350.786L350.666 316.112C350.33 316.724 349.55 317.144 348.686 317.144C347.318 317.144 346.55 316.22 346.55 314.78V311.132H347.678V314.408C347.678 315.668 348.218 316.148 349.082 316.148C350.114 316.148 350.678 315.488 350.678 314.228V311.132ZM354.559 317H353.431V311.132H354.451L354.571 312.032C354.943 311.36 355.687 310.964 356.515 310.964C358.063 310.964 358.771 311.912 358.771 313.412V317H357.643V313.664C357.643 312.476 357.091 311.996 356.227 311.996C355.171 311.996 354.559 312.752 354.559 313.892V317Z" fill="black"/>
<path d="M402.785 314.588V314.156H403.925V314.588C403.925 315.44 404.393 316.052 405.353 316.052C406.337 316.052 406.769 315.452 406.769 314.552V308.324H407.945V314.6C407.945 316.16 406.901 317.144 405.353 317.144C403.697 317.144 402.785 316.088 402.785 314.588ZM413.769 311.132H414.885V317H413.877L413.757 316.112C413.421 316.724 412.641 317.144 411.777 317.144C410.409 317.144 409.641 316.22 409.641 314.78V311.132H410.769V314.408C410.769 315.668 411.309 316.148 412.173 316.148C413.205 316.148 413.769 315.488 413.769 314.228V311.132ZM417.674 317H416.546V308.168H417.674V317Z" fill="black"/>
<path d="M462.004 317H460.78L463.948 308.324H465.256L468.436 317H467.2L466.42 314.84H462.772L462.004 317ZM464.452 310.196L463.132 313.82H466.072L464.74 310.196C464.68 310.028 464.62 309.824 464.596 309.692C464.572 309.812 464.512 310.016 464.452 310.196ZM473.29 311.132H474.406V317H473.398L473.278 316.112C472.942 316.724 472.162 317.144 471.298 317.144C469.93 317.144 469.162 316.22 469.162 314.78V311.132H470.29V314.408C470.29 315.668 470.83 316.148 471.694 316.148C472.726 316.148 473.29 315.488 473.29 314.228V311.132ZM475.67 313.916C475.67 312.26 476.738 310.964 478.442 310.964C479.39 310.964 480.122 311.396 480.494 312.128L480.578 311.132H481.586V316.76C481.586 318.608 480.446 319.784 478.646 319.784C477.05 319.784 475.958 318.884 475.742 317.396H476.87C477.014 318.26 477.662 318.764 478.646 318.764C479.75 318.764 480.47 318.044 480.47 316.928V315.752C480.086 316.436 479.318 316.844 478.394 316.844C476.726 316.844 475.67 315.56 475.67 313.916ZM476.798 313.892C476.798 314.996 477.482 315.86 478.586 315.86C479.726 315.86 480.422 315.044 480.422 313.892C480.422 312.764 479.75 311.948 478.598 311.948C477.47 311.948 476.798 312.812 476.798 313.892Z" fill="black"/>
<path d="M525.231 310.664C525.231 309.176 526.431 308.168 528.219 308.168C529.875 308.168 530.943 309.092 531.039 310.592H529.851C529.791 309.728 529.179 309.224 528.207 309.224C527.115 309.224 526.407 309.776 526.407 310.628C526.407 311.324 526.803 311.744 527.619 311.936L529.047 312.272C530.463 312.596 531.183 313.364 531.183 314.588C531.183 316.148 529.971 317.144 528.123 317.144C526.359 317.144 525.183 316.22 525.111 314.732H526.311C526.335 315.56 527.031 316.088 528.123 316.088C529.275 316.088 530.007 315.548 530.007 314.684C530.007 314 529.635 313.568 528.807 313.376L527.379 313.052C525.963 312.728 525.231 311.912 525.231 310.664ZM535.001 317.144C533.273 317.144 532.085 315.896 532.085 314.072C532.085 312.236 533.249 310.964 534.953 310.964C536.621 310.964 537.713 312.116 537.713 313.856V314.276L533.177 314.288C533.261 315.524 533.909 316.208 535.025 316.208C535.901 316.208 536.477 315.848 536.669 315.176H537.725C537.437 316.436 536.453 317.144 535.001 317.144ZM534.953 311.912C533.969 311.912 533.345 312.5 533.201 313.532H536.585C536.585 312.56 535.949 311.912 534.953 311.912ZM538.973 319.628V311.132H539.993L540.077 312.188C540.473 311.384 541.265 310.964 542.201 310.964C543.881 310.964 544.925 312.224 544.925 314.024C544.925 315.812 543.941 317.156 542.201 317.156C541.265 317.156 540.485 316.76 540.101 316.04V319.628H538.973ZM540.113 314.072C540.113 315.272 540.809 316.136 541.961 316.136C543.113 316.136 543.797 315.272 543.797 314.072C543.797 312.86 543.113 311.996 541.961 311.996C540.809 311.996 540.113 312.848 540.113 314.072Z" fill="black"/>
<path d="M596.65 312.656C596.65 315.296 594.922 317.144 592.462 317.144C590.014 317.144 588.31 315.296 588.31 312.656C588.31 310.028 590.026 308.168 592.474 308.168C594.934 308.168 596.65 310.016 596.65 312.656ZM595.414 312.656C595.414 310.64 594.238 309.308 592.474 309.308C590.71 309.308 589.546 310.64 589.546 312.656C589.546 314.672 590.71 316.016 592.474 316.016C594.238 316.016 595.414 314.66 595.414 312.656ZM597.578 314.072C597.578 312.236 598.742 310.964 600.458 310.964C601.934 310.964 602.966 311.804 603.17 313.112H602.042C601.85 312.368 601.25 311.972 600.494 311.972C599.426 311.972 598.694 312.788 598.694 314.06C598.694 315.32 599.378 316.136 600.446 316.136C601.25 316.136 601.85 315.716 602.054 315.02H603.182C602.954 316.292 601.862 317.144 600.446 317.144C598.718 317.144 597.578 315.92 597.578 314.072ZM606.028 317H604.9V312.08H603.748V311.132H604.9V309.296H606.028V311.132H607.18V312.08H606.028V317Z" fill="black"/>
<path d="M652.093 317H650.917V308.324H652.093L656.533 315.032V308.324H657.709V317H656.533L652.093 310.292V317ZM659.154 314.06C659.154 312.248 660.45 310.976 662.214 310.976C663.966 310.976 665.262 312.248 665.262 314.06C665.262 315.872 663.966 317.144 662.214 317.144C660.45 317.144 659.154 315.872 659.154 314.06ZM660.294 314.06C660.294 315.284 661.074 316.136 662.214 316.136C663.342 316.136 664.134 315.284 664.134 314.06C664.134 312.836 663.342 311.984 662.214 311.984C661.074 311.984 660.294 312.836 660.294 314.06ZM667.885 317L665.521 311.132H666.721L668.005 314.408C668.209 314.96 668.377 315.452 668.473 315.812C668.569 315.428 668.761 314.924 668.965 314.408L670.273 311.132H671.449L669.001 317H667.885Z" fill="black"/>
<path d="M717.876 317H715.008V308.324H717.828C720.42 308.324 722.172 310.076 722.172 312.668C722.172 315.248 720.444 317 717.876 317ZM717.744 309.404H716.184V315.908H717.792C719.724 315.908 720.948 314.66 720.948 312.668C720.948 310.652 719.724 309.404 717.744 309.404ZM726.008 317.144C724.28 317.144 723.092 315.896 723.092 314.072C723.092 312.236 724.256 310.964 725.96 310.964C727.628 310.964 728.72 312.116 728.72 313.856V314.276L724.184 314.288C724.268 315.524 724.916 316.208 726.032 316.208C726.908 316.208 727.484 315.848 727.676 315.176H728.732C728.444 316.436 727.46 317.144 726.008 317.144ZM725.96 311.912C724.976 311.912 724.352 312.5 724.208 313.532H727.592C727.592 312.56 726.956 311.912 725.96 311.912ZM729.596 314.072C729.596 312.236 730.76 310.964 732.476 310.964C733.952 310.964 734.984 311.804 735.188 313.112H734.06C733.868 312.368 733.268 311.972 732.512 311.972C731.444 311.972 730.712 312.788 730.712 314.06C730.712 315.32 731.396 316.136 732.464 316.136C733.268 316.136 733.868 315.716 734.072 315.02H735.2C734.972 316.292 733.88 317.144 732.464 317.144C730.736 317.144 729.596 315.92 729.596 314.072Z" fill="black"/>
<path d="M40.9524 201.357L24 199.894V304H736V74.9605L719.048 73.0825C702.095 71.2046 668.19 101.989 634.286 102.785C605.402 144.878 528.702 126.249 494.797 126.041C460.892 125.832 464.762 102.747 430.857 97.3957C389.996 73.0825 363.048 87.1065 329.143 85.4191C295.238 83.7317 261.333 85.2948 227.429 106.378C193.524 127.462 159.619 168.066 125.714 186.906C91.8095 205.745 57.9048 202.82 40.9524 201.357Z" fill="url(#paint0_linear_2204_8623)" fill-opacity="0.5"/>
<rect x="673.5" y="20.5" width="62" height="31" rx="15.5" fill="#DCF7ED"/>
<rect x="673.5" y="20.5" width="62" height="31" rx="15.5" stroke="#19C98A"/>
<path d="M693 36.5H685C684.727 36.5 684.5 36.2733 684.5 36C684.5 35.7267 684.727 35.5 685 35.5H693C693.273 35.5 693.5 35.7267 693.5 36C693.5 36.2733 693.273 36.5 693 36.5Z" fill="#19C98A"/>
<path d="M689 40.5C688.727 40.5 688.5 40.2733 688.5 40V32C688.5 31.7267 688.727 31.5 689 31.5C689.273 31.5 689.5 31.7267 689.5 32V40C689.5 40.2733 689.273 40.5 689 40.5Z" fill="#19C98A"/>
<path d="M707.408 40.988L701.552 41V40.1L704.348 37.688C705.752 36.476 706.148 35.888 706.148 34.964C706.148 33.872 705.524 33.224 704.48 33.224C703.412 33.224 702.716 34.004 702.692 35.24H701.516C701.552 33.38 702.728 32.168 704.492 32.168C706.232 32.168 707.348 33.224 707.348 34.892C707.348 36.128 706.736 37.004 705.2 38.336L703.4 39.896H707.408V40.988ZM708.49 36.668C708.49 33.98 709.882 32.156 712.066 32.156C714.238 32.156 715.63 33.98 715.63 36.668C715.63 39.368 714.298 41.156 712.066 41.156C709.822 41.156 708.49 39.368 708.49 36.668ZM709.654 36.668C709.654 38.804 710.542 40.1 712.066 40.1C713.59 40.1 714.466 38.804 714.466 36.668C714.466 34.508 713.59 33.212 712.066 33.212C710.542 33.212 709.654 34.508 709.654 36.668ZM721.107 34.376C721.107 35.66 720.195 36.584 718.911 36.584C717.639 36.584 716.727 35.66 716.727 34.376C716.727 33.08 717.639 32.156 718.911 32.156C720.195 32.156 721.107 33.08 721.107 34.376ZM725.679 32.336L719.091 41H717.939L724.527 32.336H725.679ZM720.183 34.376C720.183 33.596 719.667 33.056 718.911 33.056C718.167 33.056 717.651 33.596 717.651 34.376C717.651 35.144 718.167 35.684 718.911 35.684C719.655 35.684 720.183 35.144 720.183 34.376ZM726.915 38.948C726.915 40.232 725.991 41.156 724.719 41.156C723.447 41.156 722.523 40.232 722.523 38.948C722.523 37.652 723.447 36.74 724.719 36.74C725.991 36.74 726.915 37.652 726.915 38.948ZM725.979 38.948C725.979 38.168 725.475 37.628 724.719 37.628C723.975 37.628 723.459 38.168 723.459 38.948C723.459 39.716 723.975 40.256 724.719 40.256C725.463 40.256 725.979 39.716 725.979 38.948Z" fill="#19C98A"/>
<path d="M127.368 41H126.144L129.312 32.324H130.62L133.8 41H132.564L131.784 38.84H128.136L127.368 41ZM129.816 34.196L128.496 37.82H131.436L130.104 34.196C130.044 34.028 129.984 33.824 129.96 33.692C129.936 33.812 129.876 34.016 129.816 34.196ZM135.889 41H134.761V35.132H135.781L135.901 36.032C136.273 35.36 137.017 34.964 137.845 34.964C139.393 34.964 140.101 35.912 140.101 37.412V41H138.973V37.664C138.973 36.476 138.421 35.996 137.557 35.996C136.501 35.996 135.889 36.752 135.889 37.892V41ZM142.792 41H141.664V35.132H142.684L142.804 36.032C143.176 35.36 143.92 34.964 144.748 34.964C146.296 34.964 147.004 35.912 147.004 37.412V41H145.876V37.664C145.876 36.476 145.324 35.996 144.46 35.996C143.404 35.996 142.792 36.752 142.792 37.892V41ZM152.622 35.132H153.738V41H152.73L152.61 40.112C152.274 40.724 151.494 41.144 150.63 41.144C149.262 41.144 148.494 40.22 148.494 38.78V35.132H149.622V38.408C149.622 39.668 150.162 40.148 151.026 40.148C152.058 40.148 152.622 39.488 152.622 38.228V35.132ZM157.091 41.144C155.831 41.144 155.087 40.436 155.087 39.368C155.087 38.288 155.891 37.616 157.271 37.508L159.119 37.364V37.196C159.119 36.212 158.531 35.864 157.739 35.864C156.791 35.864 156.251 36.284 156.251 36.992H155.267C155.267 35.768 156.275 34.964 157.787 34.964C159.239 34.964 160.223 35.732 160.223 37.316V41H159.263L159.143 40.052C158.843 40.724 158.039 41.144 157.091 41.144ZM157.415 40.268C158.483 40.268 159.131 39.572 159.131 38.468V38.156L157.631 38.276C156.635 38.372 156.227 38.756 156.227 39.332C156.227 39.956 156.683 40.268 157.415 40.268ZM162.937 41H161.809V32.168H162.937V41Z" fill="#008678"/>
<path d="M180 39.2C179.533 39.2 179.067 39.02 178.713 38.6667L174.367 34.32C174.173 34.1267 174.173 33.8067 174.367 33.6133C174.56 33.42 174.88 33.42 175.073 33.6133L179.42 37.96C179.74 38.28 180.26 38.28 180.58 37.96L184.927 33.6133C185.12 33.42 185.44 33.42 185.633 33.6133C185.827 33.8067 185.827 34.1267 185.633 34.32L181.287 38.6667C180.933 39.02 180.467 39.2 180 39.2Z" fill="#1E1E1E"/>
<defs>
<linearGradient id="paint0_linear_2204_8623" x1="380" y1="84.9188" x2="380" y2="304" gradientUnits="userSpaceOnUse">
<stop stop-color="#19C98A"/>
<stop offset="1" stop-color="#DCF7ED" stop-opacity="0"/>
</linearGradient>
</defs>
</svg>
